<svg viewBox="0 0 1498 400" xmlns="http://www.w3.org/2000/svg"><g><g><g><g><g><line x1="72.34375" y1="377" x2="67.34375" y2="377" style="visibility: inherit;" fill="rgb(0, 0, 0)" stroke="rgb(204, 204, 204)" stroke-width="1px"></line><line x1="72.34375" y1="345.5833333333333" x2="67.34375" y2="345.5833333333333" style="visibility: inherit;" fill="rgb(0, 0, 0)" stroke="rgb(204, 204, 204)" stroke-width="1px"></line><line x1="72.34375" y1="314.1666666666667" x2="67.34375" y2="314.1666666666667" style="visibility: inherit;" fill="rgb(0, 0, 0)" stroke="rgb(204, 204, 204)" stroke-width="1px"></line><line x1="72.34375" y1="282.75" x2="67.34375" y2="282.75" style="visibility: inherit;" fill="rgb(0, 0, 0)" stroke="rgb(204, 204, 204)" stroke-width="1px"></line><line x1="72.34375" y1="251.33333333333331" x2="67.34375" y2="251.33333333333331" style="visibility: inherit;" fill="rgb(0, 0, 0)" stroke="rgb(204, 204, 204)" stroke-width="1px"></line><line x1="72.34375" y1="219.91666666666669" x2="67.34375" y2="219.91666666666669" style="visibility: inherit;" fill="rgb(0, 0, 0)" stroke="rgb(204, 204, 204)" stroke-width="1px"></line><line x1="72.34375" y1="188.5" x2="67.34375" y2="188.5" style="visibility: inherit;" fill="rgb(0, 0, 0)" stroke="rgb(204, 204, 204)" stroke-width="1px"></line><line x1="72.34375" y1="157.08333333333331" x2="67.34375" y2="157.08333333333331" style="visibility: inherit;" fill="rgb(0, 0, 0)" stroke="rgb(204, 204, 204)" stroke-width="1px"></line><line x1="72.34375" y1="125.66666666666669" x2="67.34375" y2="125.66666666666669" style="visibility: inherit;" fill="rgb(0, 0, 0)" stroke="rgb(204, 204, 204)" stroke-width="1px"></line><line x1="72.34375" y1="94.25" x2="67.34375" y2="94.25" style="visibility: inherit;" fill="rgb(0, 0, 0)" stroke="rgb(204, 204, 204)" stroke-width="1px"></line><line x1="72.34375" y1="62.83333333333332" x2="67.34375" y2="62.83333333333332" style="visibility: inherit;" fill="rgb(0, 0, 0)" stroke="rgb(204, 204, 204)" stroke-width="1px"></line><line x1="72.34375" y1="31.416666666666682" x2="67.34375" y2="31.416666666666682" style="visibility: inherit;" fill="rgb(0, 0, 0)" stroke="rgb(204, 204, 204)" stroke-width="1px"></line><line x1="72.34375" y1="0" x2="67.34375" y2="0" style="visibility: inherit;" fill="rgb(0, 0, 0)" stroke="rgb(204, 204, 204)" stroke-width="1px"></line></g><g transform="translate(62.34375, 0)"><text x="0" y="377" dx="0em" dy="0.3em" style="text-anchor: end; visibility: hidden; font-family: Roboto, sans-serif; font-size: 12px; font-weight: 200;" fill="rgb(33, 33, 33)" stroke="none" stroke-width="1px">5e-5</text><text x="0" y="345.5833333333333" dx="0em" dy="0.3em" style="text-anchor: end; visibility: inherit; font-family: Roboto, sans-serif; font-size: 12px; font-weight: 200;" fill="rgb(33, 33, 33)" stroke="none" stroke-width="1px">1e-4</text><text x="0" y="314.1666666666667" dx="0em" dy="0.3em" style="text-anchor: end; visibility: inherit; font-family: Roboto, sans-serif; font-size: 12px; font-weight: 200;" fill="rgb(33, 33, 33)" stroke="none" stroke-width="1px">1.5e-4</text><text x="0" y="282.75" dx="0em" dy="0.3em" style="text-anchor: end; visibility: inherit; font-family: Roboto, sans-serif; font-size: 12px; font-weight: 200;" fill="rgb(33, 33, 33)" stroke="none" stroke-width="1px">2e-4</text><text x="0" y="251.33333333333331" dx="0em" dy="0.3em" style="text-anchor: end; visibility: inherit; font-family: Roboto, sans-serif; font-size: 12px; font-weight: 200;" fill="rgb(33, 33, 33)" stroke="none" stroke-width="1px">2.5e-4</text><text x="0" y="219.91666666666669" dx="0em" dy="0.3em" style="text-anchor: end; visibility: inherit; font-family: Roboto, sans-serif; font-size: 12px; font-weight: 200;" fill="rgb(33, 33, 33)" stroke="none" stroke-width="1px">3e-4</text><text x="0" y="188.5" dx="0em" dy="0.3em" style="text-anchor: end; visibility: inherit; font-family: Roboto, sans-serif; font-size: 12px; font-weight: 200;" fill="rgb(33, 33, 33)" stroke="none" stroke-width="1px">3.5e-4</text><text x="0" y="157.08333333333331" dx="0em" dy="0.3em" style="text-anchor: end; visibility: inherit; font-family: Roboto, sans-serif; font-size: 12px; font-weight: 200;" fill="rgb(33, 33, 33)" stroke="none" stroke-width="1px">4e-4</text><text x="0" y="125.66666666666669" dx="0em" dy="0.3em" style="text-anchor: end; visibility: inherit; font-family: Roboto, sans-serif; font-size: 12px; font-weight: 200;" fill="rgb(33, 33, 33)" stroke="none" stroke-width="1px">4.5e-4</text><text x="0" y="94.25" dx="0em" dy="0.3em" style="text-anchor: end; visibility: inherit; font-family: Roboto, sans-serif; font-size: 12px; font-weight: 200;" fill="rgb(33, 33, 33)" stroke="none" stroke-width="1px">5e-4</text><text x="0" y="62.83333333333332" dx="0em" dy="0.3em" style="text-anchor: end; visibility: inherit; font-family: Roboto, sans-serif; font-size: 12px; font-weight: 200;" fill="rgb(33, 33, 33)" stroke="none" stroke-width="1px">5.5e-4</text><text x="0" y="31.416666666666682" dx="0em" dy="0.3em" style="text-anchor: end; visibility: inherit; font-family: Roboto, sans-serif; font-size: 12px; font-weight: 200;" fill="rgb(33, 33, 33)" stroke="none" stroke-width="1px">6e-4</text><text x="0" y="0" dx="0em" dy="0.3em" style="text-anchor: end; visibility: hidden; font-family: Roboto, sans-serif; font-size: 12px; font-weight: 200;" fill="rgb(33, 33, 33)" stroke="none" stroke-width="1px">6.5e-4</text></g><line x1="72.34375" y1="0" x2="72.34375" y2="377" fill="rgb(0, 0, 0)" stroke="rgb(204, 204, 204)" stroke-width="1px"></line></g></g><g transform="translate(72, 0)" clip-path="url(#clip_0)"><clipPath id="clip_0"><rect width="1425" height="377"></rect></clipPath><g><g><g><line x1="0" y1="0" x2="0" y2="377" fill="rgb(0, 0, 0)" stroke="rgb(66, 66, 66)" stroke-width="1px" opacity="0.25"></line><line x1="142.565625" y1="0" x2="142.565625" y2="377" fill="rgb(0, 0, 0)" stroke="rgb(66, 66, 66)" stroke-width="1px" opacity="0.25"></line><line x1="285.13125" y1="0" x2="285.13125" y2="377" fill="rgb(0, 0, 0)" stroke="rgb(66, 66, 66)" stroke-width="1px" opacity="0.25"></line><line x1="427.696875" y1="0" x2="427.696875" y2="377" fill="rgb(0, 0, 0)" stroke="rgb(66, 66, 66)" stroke-width="1px" opacity="0.25"></line><line x1="570.2625" y1="0" x2="570.2625" y2="377" fill="rgb(0, 0, 0)" stroke="rgb(66, 66, 66)" stroke-width="1px" opacity="0.25"></line><line x1="712.828125" y1="0" x2="712.828125" y2="377" fill="rgb(0, 0, 0)" stroke="rgb(66, 66, 66)" stroke-width="1px" opacity="0.25"></line><line x1="855.39375" y1="0" x2="855.39375" y2="377" fill="rgb(0, 0, 0)" stroke="rgb(66, 66, 66)" stroke-width="1px" opacity="0.25"></line><line x1="997.9593749999999" y1="0" x2="997.9593749999999" y2="377" fill="rgb(0, 0, 0)" stroke="rgb(66, 66, 66)" stroke-width="1px" opacity="0.25"></line><line x1="1140.525" y1="0" x2="1140.525" y2="377" fill="rgb(0, 0, 0)" stroke="rgb(66, 66, 66)" stroke-width="1px" opacity="0.25"></line><line x1="1283.090625" y1="0" x2="1283.090625" y2="377" fill="rgb(0, 0, 0)" stroke="rgb(66, 66, 66)" stroke-width="1px" opacity="0.25"></line><line x1="1425.65625" y1="0" x2="1425.65625" y2="377" fill="rgb(0, 0, 0)" stroke="rgb(66, 66, 66)" stroke-width="1px" opacity="0.25"></line></g><g><line x1="0" y1="377" x2="1425.65625" y2="377" fill="rgb(0, 0, 0)" stroke="rgb(66, 66, 66)" stroke-width="1px" opacity="0.25"></line><line x1="0" y1="345.5833333333333" x2="1425.65625" y2="345.5833333333333" fill="rgb(0, 0, 0)" stroke="rgb(66, 66, 66)" stroke-width="1px" opacity="0.25"></line><line x1="0" y1="314.1666666666667" x2="1425.65625" y2="314.1666666666667" fill="rgb(0, 0, 0)" stroke="rgb(66, 66, 66)" stroke-width="1px" opacity="0.25"></line><line x1="0" y1="282.75" x2="1425.65625" y2="282.75" fill="rgb(0, 0, 0)" stroke="rgb(66, 66, 66)" stroke-width="1px" opacity="0.25"></line><line x1="0" y1="251.33333333333331" x2="1425.65625" y2="251.33333333333331" fill="rgb(0, 0, 0)" stroke="rgb(66, 66, 66)" stroke-width="1px" opacity="0.25"></line><line x1="0" y1="219.91666666666669" x2="1425.65625" y2="219.91666666666669" fill="rgb(0, 0, 0)" stroke="rgb(66, 66, 66)" stroke-width="1px" opacity="0.25"></line><line x1="0" y1="188.5" x2="1425.65625" y2="188.5" fill="rgb(0, 0, 0)" stroke="rgb(66, 66, 66)" stroke-width="1px" opacity="0.25"></line><line x1="0" y1="157.08333333333331" x2="1425.65625" y2="157.08333333333331" fill="rgb(0, 0, 0)" stroke="rgb(66, 66, 66)" stroke-width="1px" opacity="0.25"></line><line x1="0" y1="125.66666666666669" x2="1425.65625" y2="125.66666666666669" fill="rgb(0, 0, 0)" stroke="rgb(66, 66, 66)" stroke-width="1px" opacity="0.25"></line><line x1="0" y1="94.25" x2="1425.65625" y2="94.25" fill="rgb(0, 0, 0)" stroke="rgb(66, 66, 66)" stroke-width="1px" opacity="0.25"></line><line x1="0" y1="62.83333333333332" x2="1425.65625" y2="62.83333333333332" fill="rgb(0, 0, 0)" stroke="rgb(66, 66, 66)" stroke-width="1px" opacity="0.25"></line><line x1="0" y1="31.416666666666682" x2="1425.65625" y2="31.416666666666682" fill="rgb(0, 0, 0)" stroke="rgb(66, 66, 66)" stroke-width="1px" opacity="0.25"></line><line x1="0" y1="0" x2="1425.65625" y2="0" fill="rgb(0, 0, 0)" stroke="rgb(66, 66, 66)" stroke-width="1px" opacity="0.25"></line></g></g></g><g><g><line x1="0" y1="408.41666666666663" x2="1425.65625" y2="408.41666666666663" fill="rgb(0, 0, 0)" stroke="rgb(153, 153, 153)" stroke-width="1.5px"></line></g></g><g><g><line x1="142.565625" y1="0" x2="142.565625" y2="377" fill="rgb(0, 0, 0)" stroke="rgb(153, 153, 153)" stroke-width="1.5px"></line></g></g><g><g><g><g><g><path stroke="rgb(204, 51, 17)" stroke-width="2px" d="M155.39653125,378.25380978506786L156.8221875,373.9111458429756L158.24784375000002,369.5236433007833L159.6735,365.1051948010805L161.09915625,360.6656987081041L162.5248125,356.21206441393224L163.95046875,351.74902873455784L165.376125,347.2798000856681L166.80178125,342.80651983414634L168.22743749999998,338.33060758289736L169.65309374999998,333.8529970829402L171.07874999999999,329.3742950069738L172.50440625,324.89489071288057L173.9300625,320.4150425612658L175.35571875,315.9349123787744L176.781375,311.4545998883061L178.20703125,306.974176010375L179.6326875,302.4936819035811L181.05834375,298.013139964131L182.484,293.5325717596564L183.90965625,289.0519870624569L185.33531250000001,284.5713883720078L186.76096875000002,280.09078467885007L188.18662500000002,275.61017782558076L189.61228125000002,271.129565323771L191.0379375,266.64895303316325L192.46359375,262.16834083504347L193.88925,257.687725014495L195.31490625,253.20711432292828L196.7405625,248.7264993865933L198.16621875,244.2458818989608L199.59187500000002,239.76527019265055L201.01753125,235.28465463877373L202.4431875,230.80403677539866L203.86884375,226.32342484051233L205.29449999999997,221.8428091476116L206.72015624999997,217.36219119969522L208.14581249999998,212.88157921340792L209.57146874999998,208.4009634892609L210.99712499999998,203.92034552235322L212.42278124999999,199.4397335245252L213.8484375,194.95911779336598L215.27409375,190.4784998221985L216.69975,185.99788782178302L218.12540625,181.51727208905243L219.5510625,177.03665411693078L220.97671875,172.55604211593595L222.402375,168.07542638285366L223.82803125,163.59480841051854L225.2536875,159.11419640939408L226.67934375000002,154.63358067623327L228.10500000000002,150.15296270385048L229.53065625,145.6723507026971L230.9563125,141.19173496951865L232.38196875,136.7111169971252L233.807625,132.2305049959654L235.23328125,127.74988926278309L236.6589375,123.2692712903872L238.08459375,118.78865928922598L239.51025,114.30804355604276L240.93590625000002,109.82743289840914L242.36156250000002,105.34681797134249L243.78721875000002,100.86620048261597L245.21287499999997,96.38558145689366L246.63853124999997,91.90496150897381L248.06418749999997,87.42435563726094L249.48984374999998,82.94374358174673L250.91549999999998,78.46312781595174L252.34115624999998,73.98250982398824L253.7668125,69.50189049632372L255.19246875,65.02127036723856L256.61812499999996,60.54066438682645L258.04378125,56.06005226609272L259.46943749999997,51.57943646116602L260.89509375,47.09881844572355L262.32075,42.618199103971556L263.74640625,38.13757896643391L265.1720625,35.449762805878166L266.59771875,33.83874087544518L268.023375,32.874892697494104L269.44903125,32.300460614965864L270.8746875,31.960790033624974L272.30034375,31.763073567404692L273.726,31.651656043715867L275.15165625000003,31.593100470428674L276.5773125,31.567388540841712L278.00296875000004,31.562480011882904L279.428625,31.571165367234734L280.85428125,31.589118897106648L282.2799375,31.613730546098793L283.70559375,31.643448910496712L285.13125,31.677328518546386L286.55690625,31.71481671672068L287.98256250000003,31.755567283378063L289.40821875,31.799387115058945L290.833875,31.846160349687544L292.25953125,31.895802840492976L293.6851875,31.94827872893825L295.11084374999996,32.00355187037554L296.5365,32.061600578016304L297.96215624999996,32.122426469312884L299.3878125,32.18601588521111L300.81346874999997,32.25236063027849L302.239125,32.32147041678114L303.66478125,32.393336442553114L305.0904375,32.467953426294905L306.51609375,32.545332828752194L307.94175,32.62545226732164L309.36740625,32.708327571492L310.7930625,32.793953609431156L312.21871875,32.88232730203975L313.644375,32.973432172332856L315.07003125,33.067287593170285L316.49568750000003,33.16389055874254L317.92134375,33.263224636038444L319.347,33.365294594776785L320.77265625,33.47010329678877L322.1983125,33.577652459173265L323.62396875,33.68792848266391L325.049625,33.80093783722655L326.47528125,33.916684404840545L327.9009375,34.035155885168166L329.32659375000003,34.15634489800676L330.75225,34.280261644760145L332.17790625000004,34.406897616745134L333.6035625,34.53624770875192L335.02921875,34.66832348717998L336.45487499999996,34.80311726234358L337.88053125,34.94060979090574L339.30618749999996,35.0808187859154L340.73184375,35.2237402456763L342.15749999999997,35.369357139645246L343.58315625,35.51767387902182L345.0088125,35.66869311052573L346.43446875,35.82241642218885L347.860125,35.9788301373048L349.28578125,36.137940679375184L350.7114375,36.29973727297569L352.13709375,36.46422808237695L353.56275,36.63140337661595L354.98840625,36.80125731711503L356.4140625,36.973786400727384L357.83971875,37.14898852556513L359.265375,37.32686243049538L360.69103125,37.50740735883851L362.1166875,37.69062285658672L363.54234375,37.87649402180984L364.968,38.06502654287521L366.39365625,38.25620920327788L367.8193125,38.45004990264019L369.24496875,38.646553380735625L370.67062500000003,38.84569322237745L372.09628125,39.0474828375044L373.52193750000004,39.251915642554266L374.94759375,39.458973057864405L376.37325000000004,39.66867319468803L377.79890625,39.880997660726216L379.22456250000005,40.09595005012497L380.65021875,40.31351788984647L382.075875,40.53370832559365L383.50153125,40.75652564478801L384.9271875,40.98194316083171L386.35284375000003,41.20997412081694L387.7785,41.44059721394807L389.20415625000004,41.673828912798655L390.6298125,41.90964984186188L392.05546875000005,42.14806300535911L393.481125,42.38907020582331L394.90678125000005,42.632657895248585L396.3324375,42.87883257435696L397.75809375000006,43.12758351405619L399.18375000000003,43.37888964736558L400.60940625000006,43.63276759314739L402.0350625,43.88921269319379L403.46071874999996,44.14822215257983L404.886375,44.409779664825265L406.31203124999996,44.67387544604189L407.7376875,44.94053288494767L409.16334374999997,45.209722126197164L410.58899999999994,45.481439886108376L412.01465625,45.755698823997555L413.44031249999995,46.032477276403675L414.86596875,46.31179150430098L416.29162499999995,46.593607375697715L417.71728125,46.87794829997503L419.14293749999996,47.16478443418545L420.56859375,47.45412713161123L421.99424999999997,47.745968574696356L423.41990625,48.04030407290722L424.84556249999997,48.337130811923586L426.27121875,48.63643247362802L427.696875,48.93821389667536L429.12253125,49.24247798425858L430.5481875,49.549197219242565L431.97384375,49.85838435039713L433.3995,50.17003239745868L434.82515624999996,50.48412254274367L436.2508125,50.8006581251675L437.67646874999997,51.119641148079126L439.102125,51.441058183962845L440.52778125,51.76490117630889L441.9534375,52.0911799207371L443.37909375,52.41987103556842L444.80475,52.7509751213208L446.23040625,53.084492538305064L447.6560625,53.42040887318218L449.08171875,53.758715477948854L450.507375,54.09942179332847L451.93303125,54.442504224704244L453.35868750000003,54.78796324483148L454.78434375,55.13579913736339L456.21000000000004,55.48601207249186L457.63565625,55.838572893281196L459.0613125,56.19349336462082L460.48696875,56.55076591591898L461.912625,56.91038600482062L463.33828125,57.27233627638727L464.7639375,57.6366209471812L466.18959375000003,58.00322791761447L467.61525,58.37216455745966L469.04090625000003,58.74340602952949L470.4665625,59.11695206103697L471.89221875000004,59.49280248831L473.317875,59.87094258361978L474.74353125000005,60.25137813985452L476.1691875,60.63408337369622L477.59484375000005,61.01907207420505L479.0205,61.4063232557661L480.44615625000006,61.79583895653604L481.87181250000003,62.1876057698833L483.29746875,62.58161565182891L484.72312500000004,62.97787840551107L486.14878125,63.37637065376174L487.57443750000004,63.77709299980549L489.00009375,64.1800311760517L490.42574999999994,64.58517662194589L491.85140624999997,64.99253883068099L493.27706249999994,65.40209423912164L494.70271875,65.81384333891229L496.12837499999995,66.22778642503947L497.55403125,66.64390904496976L498.97968749999995,67.06220252718303L500.40534375,67.48266166876714L501.83099999999996,67.90528334797492L503.25665625,68.33005106223271L504.68231249999997,68.75695490999603L506.10796875,69.18600357986392L507.533625,69.6171876554702L508.95928125,70.05048685746972L510.3849375,70.48590364778094L511.81059374999995,70.92342487402942L513.2362499999999,71.36304264479043L514.66190625,71.80475222520926L516.0875625,72.24855077437303L517.51321875,72.69442195820854L518.9388749999999,73.14237060579735L520.36453125,73.59238498506292L521.7901875,74.04444342723396L523.21584375,74.49854756057304L524.6415,74.95469836203779L526.06715625,75.41288178827726L527.4928125,75.87308941328094L528.91846875,76.33530155191708L530.344125,76.79952102263204L531.76978125,77.26574951649363L533.1954375,77.73397341861713L534.62109375,78.20416993054634L536.04675,78.67635463225821L537.47240625,79.1505076126882L538.8980625,79.62661692519758L540.32371875,80.10467540180302L541.749375,80.58467874171453L543.17503125,81.06662436445824L544.6006875,81.55049609222421L546.02634375,82.03628421832667L547.452,82.52398291875403L548.87765625,83.01358869909932L550.3033125000001,83.50508483319298L551.72896875,83.9984612853332L553.154625,84.49372666362449L554.58028125,84.99085687387847L556.0059375000001,85.48985208910773L557.43159375,85.99069778359421L558.85725,86.49338524190726L560.28290625,86.99790923478841L561.7085625,87.50426662468246L563.1342187500001,88.01244089953106L564.559875,88.52242215209904L565.98553125,89.0342044380453L567.4111875,89.54778419076537L568.8368437500001,90.06314464077089L570.2625,90.58029035589432L571.68815625,91.09919481778441L573.1138125,91.61985674495581L574.5394687500001,92.14226073899167L575.9651250000001,92.66641219036755L577.39078125,93.19229970384319L578.8164375,93.71990181274917L580.24209375,94.24922026660916L581.66775,94.78024148561181L583.0934062499999,95.31295732187051L584.5190625,95.84736288665323L585.94471875,96.38344061719526L587.370375,96.92119460536328L588.7960312499999,97.46059804722637L590.2216874999999,98.00164948995143L591.64734375,98.54434806183863L593.073,99.0886786103426L594.49865625,99.63463204393608L595.9243124999999,100.18220290770279L597.34996875,100.73137329916744L598.775625,101.28213247684492L600.20128125,101.83448131060688L601.6269374999999,102.38840569285081L603.05259375,102.94389715901531L604.47825,103.50094331560074L605.90390625,104.05953672650726L607.3295625,104.6196729300751L608.75521875,105.1813346197829L610.180875,105.7445187264805L611.60653125,106.30920877915247L613.0321875,106.87540220995223L614.4578437499999,107.44308284864636L615.8835,108.0122409930948L617.30915625,108.5828708220136L618.7348125,109.15496884263229L620.16046875,109.72851101500049L621.586125,110.30349754467332L623.01178125,110.87992124022131L624.4374375,111.45776315726117L625.86309375,112.03701924392571L627.28875,112.61767975433186L628.71440625,113.19973152618718L630.1400625,113.78315934735328L631.56571875,114.36796872007277L632.9913750000001,114.95414100140285L634.41703125,115.54166500557805L635.8426875,116.13052670637627L637.26834375,116.72072500282688L638.694,117.31225191958495L640.11965625,117.90508804191795L641.5453125,118.49922903574915L642.97096875,119.0946649858698L644.396625,119.6913826283919L645.8222812500001,120.28937400498259L647.2479375,120.88862702587954L648.67359375,121.48912712246255L650.09925,122.0908728683223L651.5249062500001,122.69385609285037L652.9505625,123.29805726415638L654.37621875,123.90347197786878L655.801875,124.51009027660189L657.2275312500001,125.11789887116154L658.6531875000001,125.72688247326867L660.07884375,126.33703922471837L661.5045,126.94836069582513L662.93015625,127.56083451401481L664.3558125000001,128.1744459409803L665.78146875,128.78918613373725L667.207125,129.40504247173237L668.63278125,130.0220073826337L670.0584375,130.6400690082793L671.4840937499999,131.259220233772L672.9097499999999,131.8794494754108L674.33540625,132.5007424682125L675.7610625,133.12309065318698L677.18671875,133.74648889494023L678.6123749999999,134.37091948271043L680.03803125,134.99637179004048L681.4636875,135.62283944105616L682.88934375,136.25031129547014L684.3149999999999,136.8787733543474L685.74065625,137.50821721832676L687.1663125,138.13863053302896L688.59196875,138.7700058858264L690.017625,139.40233151437974L691.4432812499999,140.03560036128545L692.8689375,140.66979356257588L694.29459375,141.30490711463324L695.72025,141.94092398576137L697.1459062499999,142.57783395694264L698.5715625,143.21563089676638L699.99721875,143.8543038116235L701.422875,144.49383879058593L702.84853125,145.1342274870966L704.2741875,145.77545757845877L705.69984375,146.4175216710543L707.1255,147.0604006991868L708.55115625,147.70409053820134L709.9768125,148.3485740837793L711.40246875,148.9938483880924L712.828125,149.63989705291817L714.25378125,150.28671755408578L715.6794375,150.93428643280467L717.10509375,151.5826042433259L718.53075,152.23164937391192L719.95640625,152.88141617228302L721.3820625,153.53189393230855L722.80771875,154.18307623031012L724.233375,154.83494458255535L725.65903125,155.4874878988047L727.0846875,156.14069952491448L728.5103437500001,156.79456083887308L729.936,157.44906798223624L731.36165625,158.10421132517462L732.7873125,158.75997046026527L734.2129687500001,159.41634777257977L735.638625,160.07332274887293L737.06428125,160.73088308119773L738.4899375,161.38902138478582L739.91559375,162.0477259140135L741.3412500000001,162.70698962150666L742.76690625,163.36679364931527L744.1925625,164.02712668266935L745.61821875,164.6879892474696L747.0438750000001,165.34935971496833L748.46953125,166.0112251079169L749.8951875,166.67357763996623L751.32084375,167.33641263930662L752.7465000000001,167.99971267332705L754.1721562500001,168.66345996769806L755.5978125,169.3276511725848L757.02346875,169.9922769633235L758.4491250000001,170.65732443035327L759.8747812500001,171.32277851317488L761.3004375,171.98863017548865L762.72609375,172.65487399551495L764.15175,173.3214847758977L765.5774062500001,173.9884620277488L767.0030625,174.65579082820983L768.42871875,175.32346222356583L769.854375,175.9914635268251L771.2800312500001,176.65978712579263L772.7056875000001,177.32841382362585L774.13134375,177.99733941698207L775.557,178.6665467543302L776.9826562500001,179.33602554475158L778.4083125000001,180.00576961369498L779.83396875,180.67576794166703L781.259625,181.3459992874461L782.6852812500001,182.01645822106212L784.1109375000001,182.68713416977025L785.5365937500001,183.35802078992353L786.96225,184.02909964580843L788.38790625,184.7003596759968L789.8135625000001,185.37178692886903L791.2392187500001,186.0433730334533L792.664875,186.71511296716665L794.09053125,187.38698177217094L795.5161875000001,188.05897910328895L796.9418437500001,188.7310901238887L798.3675000000001,189.4033059319912L799.79315625,190.07561387164623L801.2188125000001,190.74799903452086L802.6444687499999,191.42045979037817L804.070125,192.09297321678787L805.4957812499999,192.76553287505436L806.9214374999999,193.438120272435L808.3470937499999,194.11073894280952L809.77275,194.7833617474549L811.19840625,195.4559870326629L812.6240624999999,196.12859917668285L814.0497187499999,196.8011961212274L815.475375,197.4737546870358L816.90103125,198.14626828131438L818.3266874999999,198.8187183188614L819.7523437499999,199.49110827808133L821.1779999999999,200.16341098696597L822.60365625,200.83562477183577L824.0293125,201.50774131372043L825.4549687499999,202.17974099171215L826.8806249999999,202.85161203326643L828.30628125,203.52334737485637L829.7319375,204.1949354636033L831.1575937499999,204.86636936777984L832.5832499999999,205.5376302988243L834.00890625,206.2087069835995L835.4345625,206.87958534346058L836.86021875,207.55026424598316L838.2858749999999,208.2207210674246L839.71153125,208.89095686306464L841.1371875,209.56095032178308L842.56284375,210.2306959716704L843.9884999999999,210.9001759000556L845.4141562499999,211.56938667409855L846.8398125,212.23831160457L848.26546875,212.90694067793228L849.6911249999999,213.57526057130008L851.1167812499999,214.24326329094217L852.5424375,214.91092941109443L853.96809375,215.57826190582378L855.39375,216.24524061528223L856.8194062499999,216.91185344356103L858.2450625,217.57809313311483L859.67071875,218.24394801465382L861.096375,218.90940377184128L862.5220312499999,219.57444450011255L863.9476875,220.23906797149147L865.37334375,220.9032655344297L866.799,221.5670173684727L868.22465625,222.23031158134788L869.6503124999999,222.89314103769158L871.07596875,223.55549414152296L872.501625,224.21736393525333L873.92728125,224.87873161480428L875.3529374999999,225.53959321249135L876.77859375,226.1999317181785L878.20425,226.859736925784L879.62990625,227.51899539689617L881.0555625,228.17769906846794L882.48121875,228.8358357879084L883.906875,229.49339826366295L885.33253125,230.15037480603627L886.7581875,230.8067510864482L888.18384375,231.4625111929881L889.6095,232.11765289327224L891.03515625,232.77216021834494L892.4608125,233.42602358683277L893.88646875,234.07923724991178L895.312125,234.73178312876206L896.73778125,235.38365037609165L898.1634375,236.03482516876275L899.58909375,236.6853065276553L901.01475,237.33507192100916L902.44040625,237.98411514453093L903.8660625,238.6324324756446L905.29171875,239.27999973651637L906.7173750000001,239.92681704997142L908.14303125,240.5728698601794L909.5686875,241.21814211887946L910.99434375,241.8626315118777L912.4200000000001,242.50632202113238L913.84565625,243.14920403581849L915.2713125,243.7912644746782L916.69696875,244.43249548895696L918.122625,245.07288505463922L919.5482812500001,245.71241864255293L920.9739375,246.35108753519486L922.39959375,246.98888650206317L923.82525,247.62579777533116L925.2509062500001,248.26181800906568L926.6765625,248.89693056618123L928.10221875,249.53112546442665L929.527875,250.16438939968847L930.9535312500001,250.79671438949867L932.3791875000001,251.42808832961362L933.80484375,252.05850395748712L935.2305,252.68794960082886L936.6561562500001,253.31641094150186L938.0818125000001,253.9438793886239L939.50746875,254.57034978766575L940.933125,255.19580441638428L942.35878125,255.82023264143373L943.7844375000001,256.44362808280664L945.21009375,257.06597959773575L946.63575,257.68727318579806L948.06140625,258.30750044673965L949.4870625000001,258.9266526830269L950.9127187500001,259.54471736137697L952.338375,260.1616833044386L953.76403125,260.7775401484199L955.1896875000001,261.3922780176642L956.6153437500001,262.0058873293963L958.041,262.6183550191882L959.46665625,263.22967324838316L960.8923125000001,263.8398336564058L962.3179687500001,264.44882391214816L963.7436250000001,265.0566293021827L965.16928125,265.6632446558344L966.5949375,266.2686595559353L968.0205937500001,266.8728640948034L969.4462500000001,267.4758450130668L970.87190625,268.07759069772095L972.2975625,268.67809783834446L973.7232187500001,269.27734981915916L975.1488750000001,269.87534032807935L976.5745312500001,270.472058263091L978.0001875,271.067489648223L979.4258437500001,271.66162975527385L980.8514999999999,272.2544647751788L982.27715625,272.84599007988027L983.7028124999999,273.4361919203996L985.1284687499999,274.02505838996825L986.5541249999999,274.6125823445251L987.97978125,275.19875218287086L989.4054375,275.7835572869043L990.8310937499999,276.36699128576504L992.2567499999999,276.9490430421739L993.68240625,277.52969855900074L995.1080625,278.1089530953489L996.5337187499999,278.6867964919174L997.9593749999999,279.26321533836324L999.3850312499999,279.83820158848044L1000.8106875,280.4117467571641L1002.23634375,280.9838420959699L1003.6619999999999,281.5544750410686L1005.0876562499999,282.1236343967812L1006.5133125,282.6913134457004L1007.93896875,283.2575045000003L1009.3646249999999,283.8221956322229L1010.7902812499999,284.38537602851164L1012.2159375,284.94703920055304L1013.64159375,285.507173940596L1015.06725,286.06576986660855L1016.4929062499999,286.62281709199016L1017.9185625,287.1783060273992L1019.34421875,287.73223091923063L1020.769875,288.2845773431774L1022.1955312499999,288.8353403020365L1023.6211874999999,289.3845094827236L1025.0468437499999,289.9320750400067L1026.4724999999999,290.4780274093651L1027.89815625,291.02235719470514L1029.3238125,291.5650551009892L1030.74946875,292.1061118938134L1032.175125,292.64552203253544L1033.60078125,293.1832712206258L1035.0264375,293.7193508801667L1036.45209375,294.2537522070262L1037.8777499999999,294.78646991872523L1039.30340625,295.31748987363204L1040.7290625,295.84680724414915L1042.15471875,296.3744118189552L1043.580375,296.90029381387615L1045.00603125,297.42444370102606L1046.4316875,297.9468521062921L1047.85734375,298.4675134052066L1049.283,298.9864169083262L1050.7086562499999,299.50355254460345L1052.1343125,300.01891427141004L1053.55996875,300.53249114840605L1054.985625,301.0442766113878L1056.41128125,301.55425940707005L1057.8369375,302.0624327834819L1059.26259375,302.5687890320593L1060.68825,303.0733162129013L1062.11390625,303.5760071620671L1063.5395625,304.076853923811L1064.96521875,304.57584806730404L1066.390875,305.0729808766677L1067.81653125,305.5682434649935L1069.2421875,306.06162684275483L1070.66784375,306.55312561623583L1072.0935,307.0427292344442L1073.51915625,307.5304277094033L1074.9448125,308.01621870570835L1076.37046875,308.5000861925912L1077.796125,308.9820278663537L1079.22178125,309.46203503001396L1080.6474375,309.9400951506205L1082.07309375,310.41620436578347L1083.49875,310.8903530433065L1084.92440625,311.3625317464902L1086.3500625,311.83273481331514L1087.7757187500001,312.300955189188L1089.201375,312.76718132659045L1090.62703125,313.2314099543925L1092.0526875,313.6936281377723L1093.47834375,314.15383177321803L1094.904,314.6120110838599L1096.32965625,315.06815654619453L1097.7553125,315.52226610350147L1099.18096875,315.97432754960425L1100.6066250000001,316.4243335607971L1102.03228125,316.87227974285634L1103.4579375,317.3181561444852L1104.88359375,317.76195313752424L1106.30925,318.2036649450778L1107.73490625,318.64328444362707L1109.1605625,319.08080370167943L1110.58621875,319.51621796033936L1112.0118750000001,319.94951704950677L1113.4375312500001,320.3806948671216L1114.8631875,320.8097404371851L1116.28884375,321.2366508314794L1117.7145,321.6614206356924L1119.14015625,322.0840356290928L1120.5658125,322.5044945940045L1121.99146875,322.9227858276777L1123.417125,323.33890596584405L1124.8427812500001,323.752849332561L1126.2684375000001,324.1646052075004L1127.69409375,324.5741671584654L1129.11975,324.9815276687563L1130.54540625,325.38667857097226L1131.9710625,325.78961862205387L1133.39671875,326.19033610402147L1134.822375,326.58882764346873L1136.2480312500002,326.98508390158895L1137.6736875000001,327.37909927509827L1139.0993437500001,327.77086674464493L1140.525,328.1603784412365L1141.95065625,328.54762964347765L1143.3763125,328.93261386114966L1144.80196875,329.31532354274L1146.227625,329.6957504999598L1147.65328125,330.0738934772171L1149.0789375000002,330.4497407490126L1150.5045937500001,330.8232889374282L1151.9302500000001,331.1945305296408L1153.35590625,331.5634591892661L1154.7815625,331.9300692857826L1156.20721875,332.29435378349626L1157.632875,332.6563066322998L1159.05853125,333.0159223734383L1160.4841875,333.37319590296795L1161.90984375,333.72811867245065L1163.3355,334.0806873815141L1164.7611562499999,334.4308945638628L1166.1868124999999,334.778733911029L1167.6124687499998,335.12419980924113L1169.038125,335.467285232855L1170.46378125,335.8079859664841L1171.8894375,336.1462958235152L1173.31509375,336.4822092632895L1174.74075,336.8157211327213L1176.16640625,337.14682468257763L1177.5920624999999,337.4755158633187L1179.0177187499999,337.8017867591488L1180.4433749999998,338.12563262059024L1181.86903125,338.44704876926596L1183.2946875,338.7660305694588L1184.72034375,339.08256975366663L1186.146,339.3966631900788L1187.57165625,339.70830534222756L1188.9973125,340.01749105954144L1190.4229687499999,340.3242135942964L1191.8486249999999,340.62846889785794L1193.27428125,340.9302527123547L1194.6999375,341.2295569969916L1196.12559375,341.5263805846734L1197.55125,341.8207154603798L1198.97690625,342.1125568150989L1200.4025625,342.40190176342344L1201.82821875,342.68874308803703L1203.2538749999999,342.9730782872405L1204.6795312499999,343.2549003739424L1206.1051875,343.5342051558878L1207.53084375,343.81098828903293L1208.9565,344.0852453382611L1210.38215625,344.35696998512077L1211.8078125,344.6261602672318L1213.23346875,344.8928095210939L1214.659125,345.15691374860705L1216.0847812499999,345.4184687222205L1217.5104375,345.6774700767132L1218.93609375,345.9339133642616L1220.36175,346.18779408748117L1221.78740625,346.4391095479411L1223.2130625,346.68785264051076L1224.63871875,346.93402093080255L1226.064375,347.1776093008026L1227.49003125,347.41861467970244L1228.9156874999999,347.6570315676358L1230.34134375,347.8928566646827L1231.767,348.12608616220064L1233.19265625,348.35671777500414L1234.6183125,348.5847446459098L1236.04396875,348.81016448929813L1237.469625,349.0329722764164L1238.89528125,349.25316499001264L1240.3209375,349.4707389910452L1241.74659375,349.68569026739834L1243.17225,349.8980164118026L1244.59790625,350.107712322515L1246.0235625,350.3147749384897L1247.44921875,350.51920242309916L1248.874875,350.72098818829494L1250.30053125,350.9201301099385L1251.7261875,351.11662508485614L1253.15184375,351.31046942245297L1254.5775,351.501660908372L1256.00315625,351.6901963853084L1257.4288125,351.87607030149786L1258.85446875,352.05928115457255L1260.280125,352.239826214421L1261.70578125,352.4177020142857L1263.1314375,352.5929046454214L1264.55709375,352.7654335912718L1265.9827500000001,352.9352830558309L1267.40840625,353.1024513901859L1268.8340625,353.2669357762983L1270.25971875,353.42873269465446L1271.685375,353.5878400335461L1273.11103125,353.74425652594834L1274.5366875,353.8979777542648L1275.96234375,354.04900106793775L1277.388,354.1973248766325L1278.8136562500001,354.34294456876677L1280.2393125,354.4858610347728L1281.66496875,354.6260693228376L1283.090625,354.7635664618737L1284.51628125,354.898352497919L1285.9419375,355.030423801215L1287.36759375,355.1597800225973L1288.79325,355.28641546649527L1290.2189062500001,355.4103303729478L1291.6445625000001,355.5315230572875L1293.07021875,355.64999068002334L1294.495875,355.7657297087701L1295.92153125,355.87873985278713L1297.3471875,355.9890191089395L1298.77284375,356.0965662753462L1300.1985,356.2013769734973L1301.62415625,356.3034522336682L1303.0498125000001,356.4027890166427L1304.4754687500001,356.49938549889123L1305.901125,356.59324058629585L1307.32678125,356.68435362238597L1308.7524375,356.7727205558978L1310.17809375,356.8583426134545L1311.60375,356.94121687364844L1313.02940625,357.0213415836352L1314.4550625000002,357.0987156917081L1315.8807187500001,357.17333673815233L1317.3063750000001,357.24520507582986L1318.73203125,357.31432091645775L1320.1576875,357.3806807296849L1321.58334375,357.44428422599145L1323.009,357.5051294029746L1324.43465625,357.56321505919277L1325.8603125,357.6185423024717L1327.2859687500002,357.6711081401255L1328.7116250000001,357.72091443392395L1330.1372812500001,357.76795681485686L1331.5629375,357.8122363188996L1332.98859375,357.85375173894647L1334.41425,357.892504179425L1335.83990625,357.9284906456101L1337.2655625,357.96171116935767L1338.69121875,357.9921639410903L1340.116875,358.01985153244317L1341.54253125,358.044770000325L1342.9681874999999,358.06692246495345L1344.3938437499999,358.0863053123868L1345.8194999999998,358.1029200316415L1347.24515625,358.1167675161273L1348.6708125,358.1278446445089" style="fill: none;" fill="none"></path></g></g></g></g><g opacity="0.2"><g><g><g><path stroke="rgb(204, 51, 17)" stroke-width="2px" d="M152.54521875,380.90464399300015L153.970875,376.4240272335107L155.39653125,371.94341275988455L156.8221875,367.46279600039514L158.24784375000002,362.9821838126324L159.6735,358.50156705314294L161.09915625,354.02095029365347L162.5248125,349.5403381058907L163.95046875,345.0597213464013L165.376125,340.5791091586386L166.80178125,336.0984923991491L168.22743749999998,331.61787563965964L169.65309374999998,327.1372634518969L171.07874999999999,322.65665126413415L172.50440625,318.176029932918L173.9300625,313.6954177451553L175.35571875,309.21480555739254L176.781375,304.73418422617635L178.20703125,300.2535720384136L179.6326875,295.77295985065086L181.05834375,291.29233851943474L182.484,286.811726331672L183.90965625,282.33111414390925L185.33531250000001,277.8504928126931L186.76096875000002,273.3698806249304L188.18662500000002,268.88926843716763L189.61228125000002,264.40864710595145L191.0379375,259.9280349181887L192.46359375,255.44742273042596L193.88925,250.96680139920983L195.31490625,246.48619835490047L196.7405625,242.00557702368434L198.16621875,237.5249556924682L199.59187500000002,233.04435264815885L201.01753125,228.56373131694272L202.4431875,224.08310998572654L203.86884375,219.60250694141723L205.29449999999997,215.12188561020105L206.72015624999997,210.64126427898498L208.14581249999998,206.16066123467556L209.57146874999998,201.6800399034595L210.99712499999998,197.1994185722433L212.42278124999999,192.718815527934L213.8484375,188.2381941967178L215.27409375,183.7575728655017L216.69975,179.27696982119232L218.12540625,174.7963484899762L219.5510625,170.31572715876L220.97671875,165.8351241144507L222.402375,161.35450278323452L223.82803125,156.8738814520184L225.2536875,152.39327840770903L226.67934375000002,147.9126570764929L228.10500000000002,143.43203574527678L229.53065625,138.95143270096742L230.9563125,134.4708113697513L232.38196875,129.9901900385351L233.807625,125.50958699422576L235.23328125,121.02896566300961L236.6589375,116.54834433179349L238.08459375,112.06774128748413L239.51025,107.587119956268L240.93590625000002,103.10651691195864L242.36156250000002,98.62589558074251L243.78721875000002,94.14527424952634L245.21287499999997,89.6646529183102L246.63853124999997,85.18403158709407L248.06418749999997,80.70344682969153L249.48984374999998,76.22282549847536L250.91549999999998,71.74220416725922L252.34115624999998,67.26158283604309L253.7668125,62.78096150482691L255.19246875,58.300340173610785L256.61812499999996,53.819755416208245L258.04378125,49.33913408499211L259.46943749999997,44.85851275377593L260.89509375,40.377891422559806L262.32075,35.89727009134367L263.74640625,31.416648760127497L265.1720625,31.418038565044586L266.59771875,31.422207979795818L268.023375,31.429120430567597L269.44903125,31.43881249117352L270.8746875,31.451284161613618L272.30034375,31.466498868074268L273.726,31.48452975818265L275.15165625000003,31.505267110497986L276.5773125,31.5288206464611L278.00296875000004,31.555117218444718L279.428625,31.584193400262517L280.85428125,31.6160491919145L282.2799375,31.650648019586985L283.70559375,31.688026457093656L285.13125,31.728147930620832L286.55690625,31.77104901398219L287.98256250000003,31.816693133364094L289.40821875,31.86511686258018L290.833875,31.916320201630366L292.25953125,31.97026657670114L293.6851875,32.02699256160606L295.11084374999996,32.08646158253152L296.5365,32.14867363947753L297.96215624999996,32.213665306257674L299.3878125,32.281400009058416L300.81346874999997,32.35187774787966L302.239125,32.42513509653509L303.66478125,32.501135481211016L305.0904375,32.57987890190754L306.51609375,32.6614019324382L307.94175,32.745631425175816L309.36740625,32.83264052774757L310.7930625,32.922392666339874L312.21871875,33.014887840952724L313.644375,33.11008947777248L315.07003125,33.20807072442643L316.49568750000003,33.30879500710092L317.92134375,33.41222575198237L319.347,33.51839953288436L320.77265625,33.627316349806854L322.1983125,33.738976202749946L323.62396875,33.85334251789994L325.049625,33.97045186907053L326.47528125,34.090304256261625L327.9009375,34.21286310565967L329.32659375000003,34.33812841726467L330.75225,34.46613676489017L332.17790625000004,34.59685157472268L333.6035625,34.73027284676209L335.02921875,34.86643715482205L336.45487499999996,35.00530792508892L337.88053125,35.146848583749154L339.30618749999996,35.291132278429934L340.73184375,35.43812243531767L342.15749999999997,35.587782480598726L343.58315625,35.74014898808673L345.0088125,35.89522195778165L346.43446875,36.05300138968352L347.860125,36.21345070997871L349.28578125,36.37660649248085L350.7114375,36.54243216337636L352.13709375,36.71096429647878L353.56275,36.882166317974516L354.98840625,37.05603822786361L356.4140625,37.232580026146024L357.83971875,37.41179171282176L359.265375,37.59367328789085L360.69103125,37.778224751353264L362.1166875,37.965446103209L363.54234375,38.15530076964445L364.968,38.34782532447327L366.39365625,38.54298319388181L367.8193125,38.74081095168367L369.24496875,38.94130859787885L370.67062500000003,39.14440298484016L372.09628125,39.35016726019479L373.52193750000004,39.55856485012919L374.94759375,39.769559180829674L376.37325000000004,39.98322339992348L377.79890625,40.19948435978342L379.22456250000005,40.41837863422308L380.65021875,40.639869649428874L382.075875,40.86399397921435L383.50153125,41.0907516235796L384.9271875,41.32006943489734L386.35284375000003,41.55202056079481L387.7785,41.78653185364477L389.20415625000004,42.0236764610745L390.6298125,42.263381235456684L392.05546875000005,42.50568275060505L393.481125,42.750581006519496L394.90678125000005,42.998039429386445L396.3324375,43.24809459301952L397.75809375000006,43.50070992360509L399.18375000000003,43.75584884732962L400.60940625000006,44.01358451182023L402.0350625,44.273880343263336L403.46071874999996,44.53673634165898L404.886375,44.802115933193484L406.31203124999996,45.07001911786694L407.7376875,45.34051904330648L409.16334374999997,45.61350598807133L410.58899999999994,45.88901652597509L412.01465625,46.167087230831385L413.44031249999995,46.44764495501295L414.86596875,46.73076284614701L416.29162499999995,47.01633118279278L417.71728125,47.304459686391056L419.14293749999996,47.595038635501005L420.56859375,47.88814117774985L421.99424999999997,48.18373073932401L423.41990625,48.48180732022349L424.84556249999997,48.78237092044822L426.27121875,49.085384966184684L427.696875,49.3908860312464L429.12253125,49.69887411563344L430.5481875,50.00927607171855L431.97384375,50.32216504712898L433.3995,50.637504468051084L434.82515624999996,50.955257760671266L436.2508125,51.27546149880312L437.67646874999997,51.598115682446696L439.102125,51.92318373778835L440.52778125,52.25066566482804L441.9534375,52.58059803737945L443.37909375,52.91290770781536L444.80475,53.247631249949336L446.23040625,53.584768663781354L447.6560625,53.92428337549791L449.08171875,54.266175385098904L450.507375,54.61048126639798L451.93303125,54.957127871767916L453.35868750000003,55.306151775022336L454.78434375,55.65755297616124L456.21000000000004,56.0113314751846L457.63565625,56.367414124465206L459.0613125,56.72587407163031L460.48696875,57.08667474286631L461.912625,57.44981613817311L463.33828125,57.815261683737226L464.7639375,58.18304795337219L466.18959375000003,58.55313837326441L467.61525,58.92556951722748L469.04090625000003,59.30026823763422L470.4665625,59.67727110829822L471.89221875000004,60.05657812921948L473.317875,60.43815272658441L474.74353125000005,60.8220314742066L476.1691875,61.208141224458814L477.59484375000005,61.59655512496829L479.0205,61.9872000281078L480.44615625000006,62.380112507690974L481.87181250000003,62.775255989904174L483.29746875,63.17263047474746L484.72312500000004,63.572272536034355L486.14878125,63.97410902613774L487.57443750000004,64.37817651887111L489.00009375,64.78443844042096L490.42574999999994,65.19289479078725L491.85140624999997,65.60358214378357L493.27706249999994,66.0164273517827L494.70271875,66.43146698859829L496.12837499999995,66.84870105423033L497.55403125,67.26809297486517L498.97968749999995,67.68964275050286L500.40534375,68.11335038114339L501.83099999999996,68.53921586678672L503.25665625,68.96720263361931L504.68231249999997,69.3973106816411L506.10796875,69.8295765846657L507.533625,70.26396376887955L508.95928125,70.70043566046901L510.3849375,71.13902883324772L511.81059374999995,71.579706713402L513.2362499999999,72.02246930093192L514.66190625,72.46731659583747L516.0875625,72.9142485981186L517.51321875,73.36322873396176L518.9388749999999,73.81429357718054L520.36453125,74.26740655396134L521.7901875,74.72253109049052L523.21584375,75.17970376058169L524.6415,75.63892456423491L526.06715625,76.10015692763649L527.4928125,76.5634008507865L528.91846875,77.02861975987129L530.344125,77.49585022870451L531.76978125,77.96509225728609L533.1954375,78.43630927180249L534.62109375,78.90946469844006L536.04675,79.38463168482605L537.47240625,79.86173708333321L538.8980625,80.34078089396156L540.32371875,80.82176311671111L541.749375,81.30468375158183L543.17503125,81.78954279857375L544.6006875,82.27630368387327L546.02634375,82.76496640748032L547.452,83.25553096939497L548.87765625,83.74799736961722L550.3033125000001,84.24232903433341L551.72896875,84.73852596354358L553.154625,85.23662473106134L554.58028125,85.73655218925946L556.0059375000001,86.23834491195157L557.43159375,86.74196632532403L558.85725,87.24741642937683L560.28290625,87.75469522411004L561.7085625,88.26380270952359L563.1342187500001,88.77470231180388L564.559875,89.28739403095096L565.98553125,89.80187786696479L567.4111875,90.31815381984535L568.8368437500001,90.83618531577908L570.2625,91.35600892857957L571.68815625,91.8775515106196L573.1138125,92.4008496357128L574.5394687500001,92.92586673004553L575.9651250000001,93.4526393674314L577.39078125,93.9811309740568L578.8164375,94.51130497610815L580.24209375,95.04319794739905L581.66775,95.57677331411588L583.0934062499999,96.11203107625865L584.5190625,96.64897123382735L585.94471875,97.1875572130084L587.370375,97.72782558761537L588.7960312499999,98.26970321002104L590.2216874999999,98.81322665403906L591.64734375,99.35839591966942L593.073,99.90517443309847L594.49865625,100.45356219432625L595.9243124999999,101.00355920335278L597.34996875,101.5551288863644L598.775625,102.10827124336112L600.20128125,102.66300456124976L601.6269374999999,103.21929226621673L603.05259375,103.777134358262L604.47825,104.3365125504788L605.90390625,104.89742684286706L607.3295625,105.45987723542686L608.75521875,106.02382715434454L610.180875,106.58929488652694L611.60653125,107.15624385816045L613.0321875,107.72469235615182L614.4578437499999,108.29460380668752L615.8835,108.86597820976749L617.30915625,109.43881556539174L618.7348125,110.01311587356031L620.16046875,110.58882427355275L621.586125,111.16597733918265L623.01178125,111.74455678354326L624.4374375,112.32452603282094L625.86309375,112.90590337392251L627.28875,113.48867051994115L628.71440625,114.0728091839701L630.1400625,114.65830107910246L631.56571875,115.24518277915195L632.9913750000001,115.83339942339808L634.41703125,116.42295101184085L635.8426875,117.01381925757352L637.26834375,117.60602244750284L638.694,118.19954229472205L640.11965625,118.7943422254175L641.5453125,119.39044052649598L642.97096875,119.98781891105074L644.396625,120.58645909217495L645.8222812500001,121.18636106986861L647.2479375,121.78750655722492L648.67359375,122.38987726733707L650.09925,122.9934914871119L651.5249062500001,123.59833092964254L652.9505625,124.20435902111541L654.37621875,124.81159404843733L655.801875,125.4200177247015L657.2275312500001,126.02961176300109L658.6531875000001,126.64035787642933L660.07884375,127.25227435189299L661.5045,127.86534290248528L662.93015625,128.47954524129938L664.3558125000001,129.0948630814285L665.78146875,129.7112964228727L667.207125,130.32882697872503L668.63278125,130.94745474898565L670.0584375,131.56716144674766L671.4840937499999,132.18794707201107L672.9097499999999,132.8097933378691L674.33540625,133.43268195741496L675.7610625,134.0566129306486L677.18671875,134.68158625757013L678.6123749999999,135.30756536436576L680.03803125,135.93455025103566L681.4636875,136.56254091757972L682.88934375,137.1915190770912L684.3149999999999,137.82146644266322L685.74065625,138.4523830142959L687.1663125,139.0842505050823L688.59196875,139.71706891502254L690.017625,140.35081995720975L691.4432812499999,140.98550363164395L692.8689375,141.62108336451155L694.29459375,142.2575774427193L695.72025,142.89494929245365L697.1459062499999,143.53319891371456L698.5715625,144.17232630650204L699.99721875,144.81231318390928L701.422875,145.4531412590295L702.84853125,146.09481053186272L704.2741875,146.73730271550204L705.69984375,147.38061780994758L707.1255,148.02471924138564L708.55115625,148.6696252967231L709.9768125,149.3152994021463L711.40246875,149.96175984456204L712.828125,150.60897005015676L714.25378125,151.25694830583717L715.6794375,151.90563975088298L717.10509375,152.55508095910773L718.53075,153.205217069791L719.95640625,153.85606636983965L721.3820625,154.50761057234678L722.80771875,155.15984967731248L724.233375,155.8127471109231L725.65903125,156.46630287317868L727.0846875,157.12051696407917L728.5103437500001,157.775352809811L729.936,158.43082869728096L731.36165625,159.08692633958225L732.7873125,159.74360916290124L734.2129687500001,160.4009137410515L735.638625,161.05878521331277L737.06428125,161.7172235796849L738.4899375,162.37622884016793L739.91559375,163.0357827078551L741.3412500000001,163.6958851827464L742.76690625,164.35649969102815L744.1925625,165.01762623270042L745.61821875,165.67928309466998L747.0438750000001,166.34141541621648L748.46953125,167.00402319733985L749.8951875,167.6671064380401L751.32084375,168.33066513831727L752.7465000000001,168.99466272435774L754.1721562500001,169.65908090925467L755.5978125,170.3239379799149L757.02346875,170.98921564943157L758.4491250000001,171.65489563089795L759.8747812500001,172.3209596374072L761.3004375,172.98740766895935L762.72609375,173.65423972555436L764.15175,174.32140094647184L765.5774062500001,174.98892790552537L767.0030625,175.65678402890143L768.42871875,176.3249693165999L769.854375,176.99346548171405L771.2800312500001,177.66227252424386L772.7056875000001,178.33135387037572L774.13134375,179.0007278070164L775.557,179.67035776035237L776.9826562500001,180.34024373038363L778.4083125000001,181.01038571711007L779.83396875,181.68076543362503L781.259625,182.35134630611475L782.6852812500001,183.02214662148617L784.1109375000001,183.69314809283242L785.5365937500001,184.36435072015348L786.96225,185.03571792963584L788.38790625,185.70724972127937L789.8135625000001,186.37892780817737L791.2392187500001,187.05075219032977L792.664875,187.7227228677366L794.09053125,188.39478497967747L795.5161875000001,189.06697509996593L796.9418437500001,189.7392566547884L798.3675000000001,190.4116296441449L799.79315625,191.08407578112872L801.2188125000001,191.75657677883282L802.6444687499999,192.42915092416422L804.070125,193.10174335640238L805.4957812499999,193.77437236245407L806.9214374999999,194.44700136850588L808.3470937499999,195.11966694837122L809.77275,195.79229595442303L811.19840625,196.46492496047483L812.6240624999999,197.137517392713L814.0497187499999,197.81009153804428L815.475375,198.4825925357485L816.90103125,199.1550386727322L818.3266874999999,199.82739337518194L819.7523437499999,200.49969321691117L821.1779999999999,201.17186505029292L822.60365625,201.8439454491405L824.0293125,202.51591612654738L825.4549687499999,203.1877405086998L826.8806249999999,203.85941859559773L828.30628125,204.53095038724132L829.7319375,205.20231759672367L831.1575937499999,205.87352022404468L832.5832499999999,206.54452169539093L834.00890625,207.2153220107624L835.4345625,207.88590288325213L836.86021875,208.5562825997671L838.2858749999999,209.22640629958676L839.71153125,209.89631055652478L841.1371875,210.56594050986075L842.56284375,211.23531444650143L843.9884999999999,211.9043957926333L845.4141562499999,212.5732028351631L846.8398125,213.2416990002772L848.26546875,213.90988428797573L849.6911249999999,214.57774041135178L851.1167812499999,215.24526737040526L852.5424375,215.91242859132274L853.96809375,216.57926064791775L855.39375,217.24570867946989L856.8194062499999,217.91177268597914L858.2450625,218.57745266744553L859.67071875,219.24273033696227L861.096375,219.9075874076225L862.5220312499999,220.57200559251942L863.9476875,221.23600317855983L865.37334375,221.89956187883706L866.799,222.56264511953725L868.22465625,223.22525290066062L869.6503124999999,223.88738522220712L871.07596875,224.5490237972699L872.501625,225.21016862584895L873.92728125,225.87078313413076L875.3529374999999,226.530885609022L876.77859375,227.19043947670917L878.20425,227.84944473719224L879.62990625,228.50788310356438L881.0555625,229.1657545758256L882.48121875,229.8230408670691L883.906875,230.4797419772949L885.33253125,231.13583961959614L886.7581875,231.7913155070661L888.18384375,232.44615135279793L889.6095,233.10036544369842L891.03515625,233.753921205954L892.4608125,234.40681863956462L893.88646875,235.05905774453032L895.312125,235.7106019470375L896.73778125,236.3614512470861L898.1634375,237.01158735776937L899.58909375,237.66102856599412L901.01475,238.30972001103993L902.44040625,238.95767997981358L903.8660625,239.60490847231506L905.29171875,240.25135062782402L906.7173750000001,240.897043020154L908.14303125,241.54194907549146L909.5686875,242.18605050692952L910.99434375,242.82936560137506L912.4200000000001,243.47185778501444L913.84565625,244.1135270578476L915.2713125,244.75435513296782L916.69696875,245.3943420103751L918.122625,246.0334694031626L919.5482812500001,246.6717190244235L920.9739375,247.30909087415785L922.39959375,247.9455849523656L923.82525,248.58116468523315L925.2509062500001,249.21584835966735L926.6765625,249.84959940185456L928.10221875,250.4824178117948L929.527875,251.11428530258127L930.9535312500001,251.74520187421388L932.3791875000001,252.37514923978597L933.80484375,253.00412739929743L935.2305,253.6321180658415L936.6561562500001,254.25910295251134L938.0818125000001,254.88508205930702L939.50746875,255.5100553862285L940.933125,256.13398635946214L942.35878125,256.756874979008L943.7844375000001,257.37872124486603L945.21009375,257.99950687012944L946.63575,258.61921356789145L948.06140625,259.23784133815207L949.4870625000001,259.85538103745785L950.9127187500001,260.47181437890197L952.338375,261.0871322190311L953.76403125,261.7013254143918L955.1896875000001,262.3143848215307L956.6153437500001,262.9263012969944L958.041,263.537056553876L959.46665625,264.1466505921756L960.8923125000001,264.7550742684398L962.3179687500001,265.3623092957617L963.7436250000001,265.96833738723456L965.16928125,266.5731676863118L966.5949375,267.1767819060866L968.0205937500001,267.7791709031056L969.4462500000001,268.38031639046187L970.87190625,268.98020922470215L972.2975625,269.57885854927974L973.7232187500001,270.1762277903811L975.1488750000001,270.7723260914596L976.5745312500001,271.3671351656085L978.0001875,271.96063672592084L979.4258437500001,272.5528399158502L980.8514999999999,273.14371730503626L982.27715625,273.73327803693246L983.7028124999999,274.3214946811786L985.1284687499999,274.9083580943212L986.5541249999999,275.49386827636044L987.97978125,276.07800694038934L989.4054375,276.6607649429546L990.8310937499999,277.2421422840562L992.2567499999999,277.8221206767872L993.68240625,278.400681834241L995.1080625,278.97783489987097L996.5337187499999,279.55356158677023L997.9593749999999,280.127843608032L999.3850312499999,280.7006809636562L1000.8106875,281.2720645101896L1002.23634375,281.84198510417866L1003.6619999999999,282.41042445871665L1005.0876562499999,282.97737343035016L1006.5133125,283.5428320190791L1007.93896875,284.10679108145024L1009.3646249999999,284.6692323305566L1010.7902812499999,285.2301466229449L1012.2159375,285.7895339586151L1013.64159375,286.3473760506604L1015.06725,286.90366375562735L1016.4929062499999,287.4583879300626L1017.9185625,288.0115394305127L1019.34421875,288.56311825697776L1020.769875,289.11309697909746L1022.1955312499999,289.66148474032525L1023.6211874999999,290.2082632537543L1025.0468437499999,290.7534233759312L1026.4724999999999,291.29695596340264L1027.89815625,291.83885187271517L1029.3238125,292.3791019604153L1030.74946875,292.91769708304975L1032.175125,293.45463724061847L1033.60078125,293.9898950027612L1035.0264375,294.52347036947805L1036.45209375,295.0553541973155L1037.8777499999999,295.5855464862737L1039.30340625,296.1140198059923L1040.7290625,296.6407832999248L1042.15471875,297.1658186811643L1043.580375,297.6891168062575L1045.00603125,298.2106685317509L1046.4316875,298.7304647141912L1047.85734375,299.24850535357837L1049.283,299.76477216300555L1050.7086562499999,300.27925599901937L1052.1343125,300.79195686161984L1053.55996875,301.3028564639001L1054.985625,301.8119548058603L1056.41128125,302.31923360059346L1057.8369375,302.8246928480997L1059.26259375,303.3283234049255L1060.68825,303.8301069841642L1062.11390625,304.33004358581576L1063.5395625,304.8281240664267L1064.96521875,305.3243392825437L1066.390875,305.8186800907133L1067.81653125,306.31113734748214L1069.2421875,306.8017019093968L1070.66784375,307.2903737764573L1072.0935,307.77713466175675L1073.51915625,308.26197542184184L1074.9448125,308.744905200166L1076.37046875,309.22588742291555L1077.796125,309.7049403769973L1079.22178125,310.18204577550443L1080.6474375,310.65718533153023L1082.07309375,311.130368188528L1083.49875,311.601576059591L1084.92440625,312.0707998012658L1086.3500625,312.5380394135524L1087.7757187500001,313.0032857529974L1089.201375,313.466520532694L1090.62703125,313.9277528960956L1092.0526875,314.386955412842L1093.47834375,314.8441372263866L1094.904,315.2992800498226L1096.32965625,315.75237473969656L1097.7553125,316.20343043946195L1099.18096875,316.6524197187585L1100.6066250000001,317.09934257758624L1102.03228125,317.5441990159452L1103.4579375,317.9869707469285L1104.88359375,318.4276486270828L1106.30925,318.8662326564081L1107.73490625,319.30271369145095L1109.1605625,319.73708258875797L1110.58621875,320.16933934832923L1112.0118750000001,320.5994656832578L1113.4375312500001,321.02746159354376L1114.8631875,321.4533087922803L1116.28884375,321.87701642292086L1117.7145,322.29857534201193L1119.14015625,322.7179581191934L1120.5658125,323.135183041372L1121.99146875,323.5502226781876L1123.417125,323.96308617309353L1124.8427812500001,324.37376438263647L1126.2684375000001,324.7822390199095L1127.69409375,325.18851008491276L1129.11975,325.5925684341928L1130.54540625,325.99440492429613L1131.9710625,326.39402869867627L1133.39671875,326.79141232697293L1134.822375,327.1865649526395L1136.2480312500002,327.5794682887693L1137.6736875000001,327.97012233536225L1139.0993437500001,328.3585179489649L1140.525,328.74464598612394L1141.95065625,329.1285064468393L1143.3763125,329.5100901876576L1144.80196875,329.88938806512544L1146.227625,330.26639093578945L1147.65328125,330.641107943103L1149.0789375000002,331.0135116567059L1150.5045937500001,331.38361122005153L1151.9302500000001,331.7513929179598L1153.35590625,332.116852178704L1154.7815625,332.4799844305574L1156.20721875,332.8407805300667L1157.632875,333.1992359055051L1159.05853125,333.5553459851459L1160.4841875,333.9091061972625L1161.90984375,334.26050282667467L1163.3355,334.6095404451092L1164.7611562499999,334.95620533738594L1166.1868124999999,335.3004929317782L1167.6124687499998,335.6423986565593L1169.038125,335.98191336827585L1170.46378125,336.31903706692776L1171.8894375,336.65376060906175L1173.31509375,336.98607942295104L1174.74075,337.31598893686896L1176.16640625,337.6434800073621L1177.5920624999999,337.9685526344304L1179.0177187499999,338.2911931028939L1180.4433749999998,338.61140141275246L1181.86903125,338.92917299227946L1183.2946875,339.2445032697481L1184.72034375,339.55737852997845L1186.146,339.86780334469705L1187.57165625,340.1757685704506L1188.9973125,340.4812696355123L1190.4229687499999,340.7842973964289L1191.8486249999999,341.08485185320023L1193.27428125,341.3829284340997L1194.6999375,341.67851342394715L1196.12559375,341.971615966196L1197.55125,342.2622177739395L1198.97690625,342.55031884717755L1200.4025625,342.8359191859102L1201.82821875,343.1190050749574L1203.2538749999999,343.39958108604577L1204.6795312499999,343.6776335039952L1206.1051875,343.9531623288058L1207.53084375,344.22616298875073L1208.9565,344.4966309121034L1210.38215625,344.76455695541034L1211.8078125,345.0299456903983L1213.23346875,345.2927834018871L1214.659125,345.5530700898768L1216.0847812499999,345.8108011826407L1217.5104375,346.0659721084521L1218.93609375,346.3185782955843L1220.36175,346.56861517231056L1221.78740625,346.81608273863094L1223.2130625,347.0609672793653L1224.63871875,347.3032733662403L1226.064375,347.54299185580265L1227.49003125,347.78012274805224L1228.9156874999999,348.01465689953574L1230.34134375,348.2465943102531L1231.767,348.4759304084776L1233.19265625,348.7026651942094L1234.6183125,348.9267849522682L1236.04396875,349.14829425438074L1237.469625,349.3671839570937L1238.89528125,349.58345406040706L1240.3209375,349.79709999259404L1241.74659375,350.00811718192807L1243.17225,350.21650562840904L1244.59790625,350.42225618858356L1246.0235625,350.6253688624517L1247.44921875,350.8258436500134L1248.874875,351.0236668360885L1250.30053125,351.21884299240384L1251.7261875,351.41136754723266L1253.15184375,351.6012359288482L1254.5775,351.78844813725055L1256.00315625,351.97299960071297L1257.4288125,352.15488117578207L1258.85446875,352.3340974341845L1260.280125,352.51064380419365L1261.70578125,352.6845157140827L1263.1314375,352.85570859212504L1264.55709375,353.02422701004735L1265.9827500000001,353.19005725266953L1267.40840625,353.3532038917183L1268.8340625,353.5136623554669L1270.25971875,353.6714280721887L1271.685375,353.8265010418836L1273.11103125,353.9788812645517L1274.5366875,354.12855959673954L1275.96234375,354.27553603844717L1277.388,354.41981058967457L1278.8136562500001,354.5613741069683L1280.2393125,354.70023573378177L1281.66496875,354.83638175493496L1283.090625,354.96981217042776L1284.51628125,355.10053155198693L1285.9419375,355.22853075615905L1287.36759375,355.3538143546709L1288.79325,355.4763686323422L1290.2189062500001,355.5962027326265L1291.6445625000001,355.71331208379706L1293.07021875,355.82769211412716L1294.495875,355.93933825189015L1295.92153125,356.0482550688127L1297.3471875,356.1544379931681L1298.77284375,356.2578870249563L1300.1985,356.35859302072396L1301.62415625,356.4565651239245L1303.0498125000001,356.55179419110453L1304.4754687500001,356.64428022226394L1305.901125,356.73402321740286L1307.32678125,356.82102317652124L1308.7524375,356.9052709561656L1310.17809375,356.98677569978946L1311.60375,357.06552826393937L1313.02940625,357.14152864861535L1314.4550625000002,357.21477685381734L1315.8807187500001,357.28526830781874L1317.3063750000001,357.35300758234615L1318.73203125,357.4179946773996L1320.1576875,357.4802204495257L1321.58334375,357.53968947045115L1323.009,357.5963971684493L1324.43465625,357.65034354352L1325.8603125,357.70153316739015L1327.2859687500002,357.7499568966062L1328.7116250000001,357.79562387462164L1330.1372812500001,357.8385203862563L1331.5629375,357.8786555749636L1332.98859375,357.91602486901684L1334.41425,357.95063284014276L1335.83990625,357.9824703448879L1337.2655625,358.011541954979L1338.69121875,358.03784309868934L1340.116875,358.06138291947235L1341.54253125,358.0821477021479L1342.9681874999999,358.10015116189606L1344.3938437499999,358.1153795835368L1345.8194999999998,358.1278421105235L1347.24515625,358.1375387428561L1348.6708125,358.1444603370813" style="fill: none;" fill="none"></path></g></g></g></g></g></g><g transform="translate(72, 377)" clip-path="url(#clip_1)"><clipPath id="clip_1"><rect width="1425" height="23"></rect></clipPath><g><g><line x1="0" y1="0" x2="0" y2="5" style="visibility: inherit;" fill="rgb(0, 0, 0)" stroke="rgb(204, 204, 204)" stroke-width="1px"></line><line x1="142.565625" y1="0" x2="142.565625" y2="5" style="visibility: inherit;" fill="rgb(0, 0, 0)" stroke="rgb(204, 204, 204)" stroke-width="1px"></line><line x1="285.13125" y1="0" x2="285.13125" y2="5" style="visibility: inherit;" fill="rgb(0, 0, 0)" stroke="rgb(204, 204, 204)" stroke-width="1px"></line><line x1="427.696875" y1="0" x2="427.696875" y2="5" style="visibility: inherit;" fill="rgb(0, 0, 0)" stroke="rgb(204, 204, 204)" stroke-width="1px"></line><line x1="570.2625" y1="0" x2="570.2625" y2="5" style="visibility: inherit;" fill="rgb(0, 0, 0)" stroke="rgb(204, 204, 204)" stroke-width="1px"></line><line x1="712.828125" y1="0" x2="712.828125" y2="5" style="visibility: inherit;" fill="rgb(0, 0, 0)" stroke="rgb(204, 204, 204)" stroke-width="1px"></line><line x1="855.39375" y1="0" x2="855.39375" y2="5" style="visibility: inherit;" fill="rgb(0, 0, 0)" stroke="rgb(204, 204, 204)" stroke-width="1px"></line><line x1="997.9593749999999" y1="0" x2="997.9593749999999" y2="5" style="visibility: inherit;" fill="rgb(0, 0, 0)" stroke="rgb(204, 204, 204)" stroke-width="1px"></line><line x1="1140.525" y1="0" x2="1140.525" y2="5" style="visibility: inherit;" fill="rgb(0, 0, 0)" stroke="rgb(204, 204, 204)" stroke-width="1px"></line><line x1="1283.090625" y1="0" x2="1283.090625" y2="5" style="visibility: inherit;" fill="rgb(0, 0, 0)" stroke="rgb(204, 204, 204)" stroke-width="1px"></line><line x1="1425.65625" y1="0" x2="1425.65625" y2="5" style="visibility: inherit;" fill="rgb(0, 0, 0)" stroke="rgb(204, 204, 204)" stroke-width="1px"></line></g><g transform="translate(0, 8)"><text x="0" y="0" dx="0em" dy="0.95em" style="text-anchor: middle; visibility: hidden; font-family: Roboto, sans-serif; font-size: 12px; font-weight: 200;" fill="rgb(33, 33, 33)" stroke="none" stroke-width="1px">-100</text><text x="142.565625" y="0" dx="0em" dy="0.95em" style="text-anchor: middle; visibility: inherit; font-family: Roboto, sans-serif; font-size: 12px; font-weight: 200;" fill="rgb(33, 33, 33)" stroke="none" stroke-width="1px">0</text><text x="285.13125" y="0" dx="0em" dy="0.95em" style="text-anchor: middle; visibility: inherit; font-family: Roboto, sans-serif; font-size: 12px; font-weight: 200;" fill="rgb(33, 33, 33)" stroke="none" stroke-width="1px">100</text><text x="427.696875" y="0" dx="0em" dy="0.95em" style="text-anchor: middle; visibility: inherit; font-family: Roboto, sans-serif; font-size: 12px; font-weight: 200;" fill="rgb(33, 33, 33)" stroke="none" stroke-width="1px">200</text><text x="570.2625" y="0" dx="0em" dy="0.95em" style="text-anchor: middle; visibility: inherit; font-family: Roboto, sans-serif; font-size: 12px; font-weight: 200;" fill="rgb(33, 33, 33)" stroke="none" stroke-width="1px">300</text><text x="712.828125" y="0" dx="0em" dy="0.95em" style="text-anchor: middle; visibility: inherit; font-family: Roboto, sans-serif; font-size: 12px; font-weight: 200;" fill="rgb(33, 33, 33)" stroke="none" stroke-width="1px">400</text><text x="855.39375" y="0" dx="0em" dy="0.95em" style="text-anchor: middle; visibility: inherit; font-family: Roboto, sans-serif; font-size: 12px; font-weight: 200;" fill="rgb(33, 33, 33)" stroke="none" stroke-width="1px">500</text><text x="997.9593749999999" y="0" dx="0em" dy="0.95em" style="text-anchor: middle; visibility: inherit; font-family: Roboto, sans-serif; font-size: 12px; font-weight: 200;" fill="rgb(33, 33, 33)" stroke="none" stroke-width="1px">600</text><text x="1140.525" y="0" dx="0em" dy="0.95em" style="text-anchor: middle; visibility: inherit; font-family: Roboto, sans-serif; font-size: 12px; font-weight: 200;" fill="rgb(33, 33, 33)" stroke="none" stroke-width="1px">700</text><text x="1283.090625" y="0" dx="0em" dy="0.95em" style="text-anchor: middle; visibility: inherit; font-family: Roboto, sans-serif; font-size: 12px; font-weight: 200;" fill="rgb(33, 33, 33)" stroke="none" stroke-width="1px">800</text><text x="1425.65625" y="0" dx="0em" dy="0.95em" style="text-anchor: middle; visibility: hidden; font-family: Roboto, sans-serif; font-size: 12px; font-weight: 200;" fill="rgb(33, 33, 33)" stroke="none" stroke-width="1px">900</text></g><line x1="0" y1="0" x2="1425.65625" y2="0" fill="rgb(0, 0, 0)" stroke="rgb(204, 204, 204)" stroke-width="1px"></line></g></g></g></g></svg>