<svg viewBox="0 0 1498 400" xmlns="http://www.w3.org/2000/svg"><g><g><g><g><g><line x1="41.171875" y1="377" x2="36.171875" y2="377" style="visibility: inherit;" fill="rgb(0, 0, 0)" stroke="rgb(204, 204, 204)" stroke-width="1px"></line><line x1="41.171875" y1="340.18359375" x2="36.171875" y2="340.18359375" style="visibility: inherit;" fill="rgb(0, 0, 0)" stroke="rgb(204, 204, 204)" stroke-width="1px"></line><line x1="41.171875" y1="303.3671875" x2="36.171875" y2="303.3671875" style="visibility: inherit;" fill="rgb(0, 0, 0)" stroke="rgb(204, 204, 204)" stroke-width="1px"></line><line x1="41.171875" y1="266.55078125" x2="36.171875" y2="266.55078125" style="visibility: inherit;" fill="rgb(0, 0, 0)" stroke="rgb(204, 204, 204)" stroke-width="1px"></line><line x1="41.171875" y1="229.734375" x2="36.171875" y2="229.734375" style="visibility: inherit;" fill="rgb(0, 0, 0)" stroke="rgb(204, 204, 204)" stroke-width="1px"></line><line x1="41.171875" y1="192.91796875" x2="36.171875" y2="192.91796875" style="visibility: inherit;" fill="rgb(0, 0, 0)" stroke="rgb(204, 204, 204)" stroke-width="1px"></line><line x1="41.171875" y1="156.1015625" x2="36.171875" y2="156.1015625" style="visibility: inherit;" fill="rgb(0, 0, 0)" stroke="rgb(204, 204, 204)" stroke-width="1px"></line><line x1="41.171875" y1="119.28515625" x2="36.171875" y2="119.28515625" style="visibility: inherit;" fill="rgb(0, 0, 0)" stroke="rgb(204, 204, 204)" stroke-width="1px"></line><line x1="41.171875" y1="82.46875" x2="36.171875" y2="82.46875" style="visibility: inherit;" fill="rgb(0, 0, 0)" stroke="rgb(204, 204, 204)" stroke-width="1px"></line><line x1="41.171875" y1="45.65234375" x2="36.171875" y2="45.65234375" style="visibility: inherit;" fill="rgb(0, 0, 0)" stroke="rgb(204, 204, 204)" stroke-width="1px"></line><line x1="41.171875" y1="8.8359375" x2="36.171875" y2="8.8359375" style="visibility: inherit;" fill="rgb(0, 0, 0)" stroke="rgb(204, 204, 204)" stroke-width="1px"></line></g><g transform="translate(31.171875, 0)"><text x="0" y="377" dx="0em" dy="0.3em" style="text-anchor: end; visibility: hidden; font-family: Roboto, sans-serif; font-size: 12px; font-weight: 200;" fill="rgb(33, 33, 33)" stroke="none" stroke-width="1px">0</text><text x="0" y="340.18359375" dx="0em" dy="0.3em" style="text-anchor: end; visibility: inherit; font-family: Roboto, sans-serif; font-size: 12px; font-weight: 200;" fill="rgb(33, 33, 33)" stroke="none" stroke-width="1px">50</text><text x="0" y="303.3671875" dx="0em" dy="0.3em" style="text-anchor: end; visibility: inherit; font-family: Roboto, sans-serif; font-size: 12px; font-weight: 200;" fill="rgb(33, 33, 33)" stroke="none" stroke-width="1px">100</text><text x="0" y="266.55078125" dx="0em" dy="0.3em" style="text-anchor: end; visibility: inherit; font-family: Roboto, sans-serif; font-size: 12px; font-weight: 200;" fill="rgb(33, 33, 33)" stroke="none" stroke-width="1px">150</text><text x="0" y="229.734375" dx="0em" dy="0.3em" style="text-anchor: end; visibility: inherit; font-family: Roboto, sans-serif; font-size: 12px; font-weight: 200;" fill="rgb(33, 33, 33)" stroke="none" stroke-width="1px">200</text><text x="0" y="192.91796875" dx="0em" dy="0.3em" style="text-anchor: end; visibility: inherit; font-family: Roboto, sans-serif; font-size: 12px; font-weight: 200;" fill="rgb(33, 33, 33)" stroke="none" stroke-width="1px">250</text><text x="0" y="156.1015625" dx="0em" dy="0.3em" style="text-anchor: end; visibility: inherit; font-family: Roboto, sans-serif; font-size: 12px; font-weight: 200;" fill="rgb(33, 33, 33)" stroke="none" stroke-width="1px">300</text><text x="0" y="119.28515625" dx="0em" dy="0.3em" style="text-anchor: end; visibility: inherit; font-family: Roboto, sans-serif; font-size: 12px; font-weight: 200;" fill="rgb(33, 33, 33)" stroke="none" stroke-width="1px">350</text><text x="0" y="82.46875" dx="0em" dy="0.3em" style="text-anchor: end; visibility: inherit; font-family: Roboto, sans-serif; font-size: 12px; font-weight: 200;" fill="rgb(33, 33, 33)" stroke="none" stroke-width="1px">400</text><text x="0" y="45.65234375" dx="0em" dy="0.3em" style="text-anchor: end; visibility: inherit; font-family: Roboto, sans-serif; font-size: 12px; font-weight: 200;" fill="rgb(33, 33, 33)" stroke="none" stroke-width="1px">450</text><text x="0" y="8.8359375" dx="0em" dy="0.3em" style="text-anchor: end; visibility: inherit; font-family: Roboto, sans-serif; font-size: 12px; font-weight: 200;" fill="rgb(33, 33, 33)" stroke="none" stroke-width="1px">500</text></g><line x1="41.171875" y1="0" x2="41.171875" y2="377" fill="rgb(0, 0, 0)" stroke="rgb(204, 204, 204)" stroke-width="1px"></line></g></g><g transform="translate(41, 0)" clip-path="url(#clip_0)"><clipPath id="clip_0"><rect width="1456" height="377"></rect></clipPath><g><g><g><line x1="0" y1="0" x2="0" y2="377" fill="rgb(0, 0, 0)" stroke="rgb(66, 66, 66)" stroke-width="1px" opacity="0.25"></line><line x1="145.6828125" y1="0" x2="145.6828125" y2="377" fill="rgb(0, 0, 0)" stroke="rgb(66, 66, 66)" stroke-width="1px" opacity="0.25"></line><line x1="291.365625" y1="0" x2="291.365625" y2="377" fill="rgb(0, 0, 0)" stroke="rgb(66, 66, 66)" stroke-width="1px" opacity="0.25"></line><line x1="437.0484375" y1="0" x2="437.0484375" y2="377" fill="rgb(0, 0, 0)" stroke="rgb(66, 66, 66)" stroke-width="1px" opacity="0.25"></line><line x1="582.73125" y1="0" x2="582.73125" y2="377" fill="rgb(0, 0, 0)" stroke="rgb(66, 66, 66)" stroke-width="1px" opacity="0.25"></line><line x1="728.4140625" y1="0" x2="728.4140625" y2="377" fill="rgb(0, 0, 0)" stroke="rgb(66, 66, 66)" stroke-width="1px" opacity="0.25"></line><line x1="874.096875" y1="0" x2="874.096875" y2="377" fill="rgb(0, 0, 0)" stroke="rgb(66, 66, 66)" stroke-width="1px" opacity="0.25"></line><line x1="1019.7796874999999" y1="0" x2="1019.7796874999999" y2="377" fill="rgb(0, 0, 0)" stroke="rgb(66, 66, 66)" stroke-width="1px" opacity="0.25"></line><line x1="1165.4625" y1="0" x2="1165.4625" y2="377" fill="rgb(0, 0, 0)" stroke="rgb(66, 66, 66)" stroke-width="1px" opacity="0.25"></line><line x1="1311.1453125" y1="0" x2="1311.1453125" y2="377" fill="rgb(0, 0, 0)" stroke="rgb(66, 66, 66)" stroke-width="1px" opacity="0.25"></line><line x1="1456.828125" y1="0" x2="1456.828125" y2="377" fill="rgb(0, 0, 0)" stroke="rgb(66, 66, 66)" stroke-width="1px" opacity="0.25"></line></g><g><line x1="0" y1="377" x2="1456.828125" y2="377" fill="rgb(0, 0, 0)" stroke="rgb(66, 66, 66)" stroke-width="1px" opacity="0.25"></line><line x1="0" y1="340.18359375" x2="1456.828125" y2="340.18359375" fill="rgb(0, 0, 0)" stroke="rgb(66, 66, 66)" stroke-width="1px" opacity="0.25"></line><line x1="0" y1="303.3671875" x2="1456.828125" y2="303.3671875" fill="rgb(0, 0, 0)" stroke="rgb(66, 66, 66)" stroke-width="1px" opacity="0.25"></line><line x1="0" y1="266.55078125" x2="1456.828125" y2="266.55078125" fill="rgb(0, 0, 0)" stroke="rgb(66, 66, 66)" stroke-width="1px" opacity="0.25"></line><line x1="0" y1="229.734375" x2="1456.828125" y2="229.734375" fill="rgb(0, 0, 0)" stroke="rgb(66, 66, 66)" stroke-width="1px" opacity="0.25"></line><line x1="0" y1="192.91796875" x2="1456.828125" y2="192.91796875" fill="rgb(0, 0, 0)" stroke="rgb(66, 66, 66)" stroke-width="1px" opacity="0.25"></line><line x1="0" y1="156.1015625" x2="1456.828125" y2="156.1015625" fill="rgb(0, 0, 0)" stroke="rgb(66, 66, 66)" stroke-width="1px" opacity="0.25"></line><line x1="0" y1="119.28515625" x2="1456.828125" y2="119.28515625" fill="rgb(0, 0, 0)" stroke="rgb(66, 66, 66)" stroke-width="1px" opacity="0.25"></line><line x1="0" y1="82.46875" x2="1456.828125" y2="82.46875" fill="rgb(0, 0, 0)" stroke="rgb(66, 66, 66)" stroke-width="1px" opacity="0.25"></line><line x1="0" y1="45.65234375" x2="1456.828125" y2="45.65234375" fill="rgb(0, 0, 0)" stroke="rgb(66, 66, 66)" stroke-width="1px" opacity="0.25"></line><line x1="0" y1="8.8359375" x2="1456.828125" y2="8.8359375" fill="rgb(0, 0, 0)" stroke="rgb(66, 66, 66)" stroke-width="1px" opacity="0.25"></line></g></g></g><g><g><line x1="0" y1="377" x2="1456.828125" y2="377" fill="rgb(0, 0, 0)" stroke="rgb(153, 153, 153)" stroke-width="1.5px"></line></g></g><g><g><line x1="145.6828125" y1="0" x2="145.6828125" y2="377" fill="rgb(0, 0, 0)" stroke="rgb(153, 153, 153)" stroke-width="1.5px"></line></g></g><g><g><g><g><g><path stroke="rgb(0, 119, 187)" stroke-width="2px" d="M147.139640625,188.5L148.59646874999999,188.5L150.053296875,188.5L151.510125,188.5L152.966953125,188.5L154.42378125,188.5L155.880609375,188.5L157.3374375,188.5L158.794265625,188.5L160.25109375,188.5L161.707921875,188.5L163.16475,188.5L164.621578125,188.5L166.07840625,188.5L167.53523437500002,188.5L168.9920625,188.5L170.44889062500002,188.5L171.90571874999998,188.5L173.362546875,188.5L174.81937499999998,188.5L176.276203125,188.5L177.73303124999998,188.5L179.189859375,188.5L180.64668749999998,188.5L182.103515625,188.5L183.56034375000002,188.5L185.017171875,188.5L186.47400000000002,188.5L187.930828125,188.5L189.38765625000002,188.5L190.844484375,188.5L192.30131250000002,188.5L193.758140625,188.5L195.21496875000003,188.5L196.671796875,188.5L198.12862500000003,188.5L199.58545312500002,188.5L201.04228125000003,188.5L202.49910937500002,188.5L203.95593750000003,188.5L205.412765625,188.5L206.86959374999998,188.5L208.326421875,188.5L209.78324999999998,188.5L211.240078125,188.5L212.69690624999998,188.5L214.153734375,188.5L215.6105625,188.5L217.067390625,188.5L218.52421875,188.5L219.981046875,188.5L221.437875,188.5L222.894703125,188.5L224.35153125,188.5L225.808359375,188.5L227.2651875,188.5L228.722015625,188.5L230.17884375,188.5L231.635671875,188.5L233.0925,188.5L234.54932812500002,188.5L236.00615625,188.5L237.46298437500002,188.5L238.9198125,188.5L240.37664062500002,188.5L241.83346875,188.5L243.29029687500002,188.5L244.747125,188.5L246.20395312500003,188.5L247.66078125,188.5L249.11760937500003,188.5L250.5744375,188.5L252.03126562499997,188.5L253.48809375,188.5L254.94492187499998,188.5L256.40175,188.5L257.858578125,188.5L259.31540624999997,188.5L260.772234375,188.5L262.2290625,188.5L263.685890625,188.5L265.14271875,188.5L266.599546875,188.5L268.056375,188.5L269.513203125,188.5L270.97003125,188.5L272.426859375,188.5L273.8836875,188.5L275.340515625,188.5L276.79734375,188.5L278.254171875,188.5L279.711,188.5L281.167828125,188.5L282.62465625,188.5L284.081484375,188.5L285.5383125,188.5L286.99514062500003,188.5L288.45196875,188.5L289.908796875,188.5L291.365625,188.5L292.82245312500004,188.5L294.27928125,188.5L295.736109375,188.5L297.19293749999997,188.5L298.649765625,188.5L300.10659375,188.5L301.56342187499996,188.5L303.02025,188.5L304.477078125,188.5L305.93390625,188.5L307.39073437499997,188.5L308.8475625,188.5L310.304390625,188.5L311.76121875,188.5L313.21804687499997,188.5L314.674875,188.5L316.131703125,188.5L317.58853125,188.5L319.045359375,188.5L320.5021875,188.5L321.959015625,188.5L323.41584375,188.5L324.872671875,188.5L326.3295,188.5L327.786328125,188.5L329.24315625,188.5L330.699984375,188.5L332.1568125,188.5L333.613640625,188.5L335.07046875000003,188.5L336.527296875,188.5L337.984125,188.5L339.440953125,188.5L340.89778125000004,188.5L342.354609375,188.5L343.81143749999995,188.5L345.26826562499997,188.5L346.72509375,188.5L348.181921875,188.5L349.63874999999996,188.5L351.095578125,188.5L352.55240625,188.5L354.009234375,188.5L355.46606249999996,188.5L356.922890625,188.5L358.37971875,188.5L359.836546875,188.5L361.29337499999997,188.5L362.750203125,188.5L364.20703125,188.5L365.663859375,188.5L367.12068750000003,188.5L368.577515625,188.5L370.03434375,188.5L371.491171875,188.5L372.94800000000004,188.5L374.404828125,188.5L375.86165625,188.5L377.318484375,188.5L378.77531250000004,188.5L380.232140625,188.5L381.68896875,188.5L383.14579687500003,188.5L384.60262500000005,188.5L386.059453125,188.5L387.51628125,188.5L388.97310937500004,188.5L390.42993750000005,188.5L391.886765625,188.5L393.34359375,188.5L394.80042187500004,188.5L396.25725000000006,188.5L397.714078125,188.5L399.17090625000003,188.5L400.62773437500005,188.5L402.08456250000006,188.5L403.541390625,188.5L404.99821875000004,188.5L406.45504687500005,188.5L407.91187500000007,188.5L409.368703125,188.5L410.82553125,188.5L412.28235937499994,188.5L413.73918749999996,188.5L415.196015625,188.5L416.65284375,188.5L418.10967187499995,188.5L419.56649999999996,188.5L421.023328125,188.5L422.48015625,188.5L423.93698437499995,188.5L425.39381249999997,188.5L426.850640625,188.5L428.30746875,188.5L429.76429687499996,188.5L431.221125,188.5L432.677953125,188.5L434.13478125,188.5L435.59160937499996,188.5L437.0484375,188.5L438.505265625,188.5L439.96209375,188.5L441.41892187499997,188.5L442.87575,188.5L444.332578125,188.5L445.78940625,188.5L447.246234375,188.5L448.7030625,188.5L450.159890625,188.5L451.61671875,188.5L453.073546875,188.5L454.530375,188.5L455.987203125,188.5L457.44403125,188.5L458.900859375,188.5L460.3576875,188.5L461.814515625,188.5L463.27134375,188.5L464.728171875,188.5L466.185,188.5L467.641828125,188.5L469.09865625000003,188.5L470.555484375,188.5L472.0123125,188.5L473.469140625,188.5L474.92596875000004,188.5L476.382796875,188.5L477.839625,188.5L479.296453125,188.5L480.75328125000004,188.5L482.210109375,188.5L483.6669375,188.5L485.12376562500003,188.5L486.58059375000005,188.5L488.037421875,188.5L489.49425,188.5L490.95107812500004,188.5L492.40790625000005,188.5L493.864734375,188.5L495.3215625,188.5L496.77839062500004,188.5L498.23521875000006,188.5L499.692046875,188.5L501.148875,188.5L502.60570312499993,188.5L504.06253124999995,188.5L505.51935937499996,188.5L506.9761875,188.5L508.43301562499994,188.5L509.88984374999995,188.5L511.34667187499997,188.5L512.8035,188.5L514.260328125,188.5L515.71715625,188.5L517.1739843749999,188.5L518.6308124999999,188.5L520.087640625,188.5L521.54446875,188.5L523.001296875,188.5L524.458125,188.5L525.914953125,188.5L527.37178125,188.5L528.8286093749999,188.5L530.2854375,188.5L531.742265625,188.5L533.19909375,188.5L534.655921875,188.5L536.11275,188.5L537.569578125,188.5L539.02640625,188.5L540.4832343749999,188.5L541.9400625,188.5L543.396890625,188.5L544.85371875,188.5L546.310546875,188.5L547.767375,188.5L549.224203125,188.5L550.68103125,188.5L552.1378593750001,188.5L553.5946875,188.5L555.051515625,188.5L556.50834375,188.5L557.965171875,188.5L559.422,188.5L560.878828125,188.5L562.33565625,188.5L563.7924843750001,188.5L565.2493125,188.5L566.706140625,188.5L568.16296875,188.5L569.619796875,188.5L571.076625,188.5L572.533453125,188.5L573.9902812500001,188.5L575.4471093750001,188.5L576.9039375,188.5L578.360765625,188.5L579.81759375,188.5L581.274421875,188.5L582.73125,188.5L584.1880781250001,188.5L585.6449062500001,188.5L587.1017343750001,188.5L588.5585625,188.5L590.015390625,188.5L591.47221875,188.5L592.9290468749999,188.5L594.3858749999999,188.5L595.842703125,188.5L597.29953125,188.5L598.756359375,188.5L600.2131875,188.5L601.670015625,188.5L603.1268437499999,188.5L604.5836718749999,188.5L606.0405,188.5L607.497328125,188.5L608.95415625,188.5L610.410984375,188.5L611.8678125,188.5L613.324640625,188.5L614.7814687499999,188.5L616.238296875,188.5L617.695125,188.5L619.151953125,188.5L620.60878125,188.5L622.065609375,188.5L623.5224375,188.5L624.979265625,188.5L626.4360937499999,188.5L627.892921875,188.5L629.34975,188.5L630.806578125,188.5L632.26340625,188.5L633.720234375,188.5L635.1770625,188.5L636.633890625,188.5L638.09071875,188.5L639.547546875,188.5L641.004375,188.5L642.461203125,188.5L643.91803125,188.5L645.374859375,188.5L646.8316875,188.5L648.2885156250001,188.5L649.74534375,188.5L651.202171875,188.5L652.659,188.5L654.115828125,188.5L655.57265625,188.5L657.029484375,188.5L658.4863125,188.5L659.9431406250001,188.5L661.39996875,188.5L662.856796875,188.5L664.313625,188.5L665.770453125,188.5L667.22728125,188.5L668.684109375,188.5L670.1409375000001,188.5L671.5977656250001,188.5L673.05459375,188.5L674.511421875,188.5L675.96825,188.5L677.425078125,188.5L678.88190625,188.5L680.3387343750001,188.5L681.7955625000001,188.5L683.252390625,188.5L684.70921875,188.5L686.166046875,188.5L687.6228749999999,188.5L689.0797031249999,188.5L690.5365312499999,188.5L691.993359375,188.5L693.4501875,188.5L694.907015625,188.5L696.36384375,188.5L697.820671875,188.5L699.2774999999999,188.5L700.7343281249999,188.5L702.19115625,188.5L703.647984375,188.5L705.1048125,188.5L706.561640625,188.5L708.01846875,188.5L709.475296875,188.5L710.9321249999999,188.5L712.388953125,188.5L713.84578125,188.5L715.302609375,188.5L716.7594375,188.5L718.216265625,188.5L719.67309375,188.5L721.129921875,188.5L722.5867499999999,188.5L724.043578125,188.5L725.50040625,188.5L726.957234375,188.5L728.4140625,188.5L729.870890625,188.5L731.32771875,188.5L732.784546875,188.5L734.2413750000001,188.5L735.698203125,188.5L737.15503125,188.5L738.611859375,188.5L740.0686875,188.5L741.525515625,188.5L742.98234375,188.5L744.439171875,188.5L745.8960000000001,188.5L747.352828125,188.5L748.80965625,188.5L750.266484375,188.5L751.7233125,188.5L753.180140625,188.5L754.63696875,188.5L756.0937968750001,188.5L757.5506250000001,188.5L759.007453125,188.5L760.46428125,188.5L761.921109375,188.5L763.3779375,188.5L764.834765625,188.5L766.2915937500001,188.5L767.7484218750001,188.5L769.2052500000001,188.5L770.662078125,188.5L772.11890625,188.5L773.575734375,188.5L775.0325625,188.5L776.489390625,188.5L777.9462187500001,188.5L779.4030468750001,188.5L780.8598750000001,188.5L782.316703125,188.5L783.77353125,188.5L785.230359375,188.5L786.6871875,188.5L788.1440156250001,188.5L789.6008437500001,188.5L791.0576718750001,188.5L792.5145000000001,188.5L793.971328125,188.5L795.42815625,188.5L796.884984375,188.5L798.3418125000001,188.5L799.7986406250001,188.5L801.2554687500001,188.5L802.7122968750001,188.5L804.1691250000001,188.5L805.625953125,188.5L807.08278125,188.5L808.539609375,188.5L809.9964375000001,188.5L811.4532656250001,188.5L812.9100937500001,188.5L814.3669218750001,188.5L815.8237500000001,188.5L817.280578125,188.5L818.73740625,188.5L820.194234375,188.5L821.6510625,188.5L823.1078906249999,188.5L824.5647187499999,188.5L826.0215468749999,188.5L827.4783749999999,188.5L828.9352031249999,188.5L830.39203125,188.5L831.848859375,188.5L833.3056875,188.5L834.7625156249999,188.5L836.2193437499999,188.5L837.6761718749999,188.5L839.1329999999999,188.5L840.5898281249999,188.5L842.04665625,188.5L843.503484375,188.5L844.9603125,188.5L846.4171406249999,188.5L847.8739687499999,188.5L849.3307968749999,188.5L850.7876249999999,188.5L852.244453125,188.5L853.70128125,188.5L855.158109375,188.5L856.6149375,188.5L858.0717656249999,188.5L859.5285937499999,188.5L860.9854218749999,188.5L862.44225,188.5L863.899078125,188.5L865.35590625,188.5L866.812734375,188.5L868.2695625,188.5L869.7263906249999,188.5L871.1832187499999,188.5L872.6400468749999,188.5L874.096875,188.5L875.553703125,188.5L877.01053125,188.5L878.467359375,188.5L879.9241875,188.5L881.3810156249999,188.5L882.8378437499999,188.5L884.294671875,188.5L885.7515,188.5L887.208328125,188.5L888.66515625,188.5L890.121984375,188.5L891.5788125,188.5L893.0356406249999,188.5L894.49246875,188.5L895.949296875,188.5L897.406125,188.5L898.862953125,188.5L900.31978125,188.5L901.776609375,188.5L903.2334375,188.5L904.6902656249999,188.5L906.14709375,188.5L907.603921875,188.5L909.06075,188.5L910.517578125,188.5L911.97440625,188.5L913.431234375,188.5L914.8880625,188.5L916.3448906250001,188.5L917.80171875,188.5L919.258546875,188.5L920.715375,188.5L922.172203125,188.5L923.62903125,188.5L925.085859375,188.5L926.5426875,188.5L927.9995156250001,188.5L929.45634375,188.5L930.913171875,188.5L932.37,188.5L933.826828125,188.5L935.28365625,188.5L936.740484375,188.5L938.1973125000001,188.5L939.6541406250001,188.5L941.11096875,188.5L942.567796875,188.5L944.024625,188.5L945.481453125,188.5L946.93828125,188.5L948.3951093750001,188.5L949.8519375000001,188.5L951.3087656250001,188.5L952.76559375,188.5L954.222421875,188.5L955.67925,188.5L957.136078125,188.5L958.59290625,188.5L960.0497343750001,188.5L961.5065625000001,188.5L962.9633906250001,188.5L964.42021875,188.5L965.877046875,188.5L967.333875,188.5L968.790703125,188.5L970.2475312500001,188.5L971.7043593750001,188.5L973.1611875000001,188.5L974.6180156250001,188.5L976.07484375,188.5L977.531671875,188.5L978.9885,188.5L980.4453281250001,188.5L981.9021562500001,188.5L983.3589843750001,188.5L984.8158125000001,188.5L986.2726406250001,188.5L987.72946875,188.5L989.186296875,188.5L990.643125,188.5L992.0999531250001,188.5L993.5567812500001,188.5L995.0136093750001,188.5L996.4704375000001,188.5L997.9272656250001,188.5L999.38409375,188.5L1000.840921875,188.5L1002.29775,188.5L1003.754578125,188.5L1005.2114062499999,188.5L1006.6682343749999,188.5L1008.1250624999999,188.5L1009.5818906249999,188.5L1011.0387187499999,188.5L1012.495546875,188.5L1013.952375,188.5L1015.409203125,188.5L1016.8660312499999,188.5L1018.3228593749999,188.5L1019.7796874999999,188.5L1021.2365156249999,188.5L1022.6933437499999,188.5L1024.1501718749998,188.5L1025.607,188.5L1027.0638281249999,188.5L1028.52065625,188.5L1029.977484375,188.5L1031.4343125,188.5L1032.891140625,188.5L1034.3479687499998,188.5L1035.804796875,188.5L1037.2616249999999,188.5L1038.718453125,188.5L1040.17528125,188.5L1041.632109375,188.5L1043.0889375,188.5L1044.545765625,188.5L1046.00259375,188.5L1047.4594218749999,188.5L1048.91625,188.5L1050.373078125,188.5L1051.82990625,188.5L1053.286734375,188.5L1054.7435625,188.5L1056.200390625,188.5L1057.6572187499999,188.5L1059.114046875,188.5L1060.570875,188.5L1062.027703125,188.5L1063.48453125,188.5L1064.941359375,188.5L1066.3981875,188.5L1067.855015625,188.5L1069.31184375,188.5L1070.7686718749999,188.5L1072.2255,188.5L1073.682328125,188.5L1075.13915625,188.5L1076.595984375,188.5L1078.0528125,188.5L1079.509640625,188.5L1080.9664687499999,188.5L1082.423296875,188.5L1083.880125,188.5L1085.336953125,188.5L1086.79378125,188.5L1088.250609375,188.5L1089.7074375,188.5L1091.164265625,188.5L1092.62109375,188.5L1094.077921875,188.5L1095.53475,188.5L1096.991578125,188.5L1098.44840625,188.5L1099.905234375,188.5L1101.3620625,188.5L1102.818890625,188.5L1104.2757187500001,188.5L1105.732546875,188.5L1107.189375,188.5L1108.646203125,188.5L1110.10303125,188.5L1111.559859375,188.5L1113.0166875,188.5L1114.4735156250001,188.5L1115.93034375,188.5L1117.387171875,188.5L1118.844,188.5L1120.300828125,188.5L1121.75765625,188.5L1123.214484375,188.5L1124.6713125,188.5L1126.128140625,188.5L1127.5849687500001,188.5L1129.041796875,188.5L1130.498625,188.5L1131.955453125,188.5L1133.41228125,188.5L1134.869109375,188.5L1136.3259375,188.5L1137.7827656250001,188.5L1139.23959375,188.5L1140.696421875,188.5L1142.15325,188.5L1143.610078125,188.5L1145.06690625,188.5L1146.523734375,188.5L1147.9805625000001,188.5L1149.437390625,188.5L1150.8942187500002,188.5L1152.351046875,188.5L1153.807875,188.5L1155.264703125,188.5L1156.72153125,188.5L1158.1783593750001,188.5L1159.6351875,188.5L1161.0920156250002,188.5L1162.54884375,188.5L1164.005671875,188.5L1165.4625,188.5L1166.919328125,188.5L1168.3761562500001,188.5L1169.832984375,188.5L1171.2898125000002,188.5L1172.746640625,188.5L1174.2034687500002,188.5L1175.660296875,188.5L1177.117125,188.5L1178.5739531250001,188.5L1180.03078125,188.5L1181.4876093750001,188.5L1182.9444375,188.5L1184.401265625,188.5L1185.8580937499999,188.5L1187.314921875,188.5L1188.7717499999999,188.5L1190.228578125,188.5L1191.68540625,188.5L1193.1422343749998,188.5L1194.5990625,188.5L1196.0558906249998,188.5L1197.51271875,188.5L1198.9695468749999,188.5L1200.426375,188.5L1201.883203125,188.5L1203.34003125,188.5L1204.796859375,188.5L1206.2536874999998,188.5L1207.710515625,188.5L1209.1673437499999,188.5L1210.624171875,188.5L1212.081,188.5L1213.537828125,188.5L1214.99465625,188.5L1216.4514843749998,188.5L1217.9083125,188.5L1219.3651406249999,188.5L1220.82196875,188.5L1222.278796875,188.5L1223.735625,188.5L1225.192453125,188.5L1226.64928125,188.5L1228.106109375,188.5L1229.5629374999999,188.5L1231.019765625,188.5L1232.47659375,188.5L1233.933421875,188.5L1235.39025,188.5L1236.847078125,188.5L1238.30390625,188.5L1239.7607343749999,188.5L1241.2175625,188.5L1242.674390625,188.5L1244.13121875,188.5L1245.588046875,188.5L1247.044875,188.5L1248.501703125,188.5L1249.95853125,188.5L1251.415359375,188.5L1252.8721874999999,188.5L1254.329015625,188.5L1255.78584375,188.5L1257.242671875,188.5L1258.6995,188.5L1260.156328125,188.5L1261.61315625,188.5L1263.0699843749999,188.5L1264.5268125,188.5L1265.983640625,188.5L1267.44046875,188.5L1268.897296875,188.5L1270.354125,188.5L1271.810953125,188.5L1273.26778125,188.5L1274.724609375,188.5L1276.1814375,188.5L1277.638265625,188.5L1279.09509375,188.5L1280.551921875,188.5L1282.00875,188.5L1283.465578125,188.5L1284.92240625,188.5L1286.3792343750001,188.5L1287.8360625,188.5L1289.292890625,188.5L1290.74971875,188.5L1292.206546875,188.5L1293.663375,188.5L1295.120203125,188.5L1296.5770312500001,188.5L1298.033859375,188.5L1299.4906875,188.5L1300.947515625,188.5L1302.40434375,188.5L1303.861171875,188.5L1305.318,188.5L1306.774828125,188.5L1308.23165625,188.5L1309.6884843750001,188.5L1311.1453125,188.5L1312.602140625,188.5L1314.05896875,188.5L1315.515796875,188.5L1316.972625,188.5L1318.429453125,188.5L1319.8862812500001,188.5L1321.343109375,188.5L1322.7999375,188.5L1324.256765625,188.5L1325.71359375,188.5L1327.170421875,188.5L1328.62725,188.5L1330.0840781250001,188.5L1331.54090625,188.5L1332.9977343750002,188.5L1334.4545625,188.5L1335.911390625,188.5L1337.36821875,188.5L1338.825046875,188.5L1340.2818750000001,188.5L1341.738703125,188.5L1343.1955312500002,188.5L1344.652359375,188.5L1346.1091875,188.5L1347.566015625,188.5L1349.02284375,188.5L1350.4796718750001,188.5L1351.9365,188.5L1353.3933281250002,188.5L1354.85015625,188.5L1356.3069843750002,188.5L1357.7638125,188.5L1359.220640625,188.5L1360.6774687500001,188.5L1362.134296875,188.5L1363.5911250000001,188.5L1365.047953125,188.5L1366.50478125,188.5L1367.9616093749999,188.5L1369.4184375,188.5L1370.8752656249999,188.5L1372.33209375,188.5L1373.788921875,188.5L1375.2457499999998,188.5L1376.702578125,188.5L1378.1594062499998,188.5" style="fill: none;" fill="none"></path></g></g></g></g><g opacity="0.2"><g><g><g><path stroke="rgb(0, 119, 187)" stroke-width="2px" d="M147.139640625,188.5L148.59646874999999,188.5L150.053296875,188.5L151.510125,188.5L152.966953125,188.5L154.42378125,188.5L155.880609375,188.5L157.3374375,188.5L158.794265625,188.5L160.25109375,188.5L161.707921875,188.5L163.16475,188.5L164.621578125,188.5L166.07840625,188.5L167.53523437500002,188.5L168.9920625,188.5L170.44889062500002,188.5L171.90571874999998,188.5L173.362546875,188.5L174.81937499999998,188.5L176.276203125,188.5L177.73303124999998,188.5L179.189859375,188.5L180.64668749999998,188.5L182.103515625,188.5L183.56034375000002,188.5L185.017171875,188.5L186.47400000000002,188.5L187.930828125,188.5L189.38765625000002,188.5L190.844484375,188.5L192.30131250000002,188.5L193.758140625,188.5L195.21496875000003,188.5L196.671796875,188.5L198.12862500000003,188.5L199.58545312500002,188.5L201.04228125000003,188.5L202.49910937500002,188.5L203.95593750000003,188.5L205.412765625,188.5L206.86959374999998,188.5L208.326421875,188.5L209.78324999999998,188.5L211.240078125,188.5L212.69690624999998,188.5L214.153734375,188.5L215.6105625,188.5L217.067390625,188.5L218.52421875,188.5L219.981046875,188.5L221.437875,188.5L222.894703125,188.5L224.35153125,188.5L225.808359375,188.5L227.2651875,188.5L228.722015625,188.5L230.17884375,188.5L231.635671875,188.5L233.0925,188.5L234.54932812500002,188.5L236.00615625,188.5L237.46298437500002,188.5L238.9198125,188.5L240.37664062500002,188.5L241.83346875,188.5L243.29029687500002,188.5L244.747125,188.5L246.20395312500003,188.5L247.66078125,188.5L249.11760937500003,188.5L250.5744375,188.5L252.03126562499997,188.5L253.48809375,188.5L254.94492187499998,188.5L256.40175,188.5L257.858578125,188.5L259.31540624999997,188.5L260.772234375,188.5L262.2290625,188.5L263.685890625,188.5L265.14271875,188.5L266.599546875,188.5L268.056375,188.5L269.513203125,188.5L270.97003125,188.5L272.426859375,188.5L273.8836875,188.5L275.340515625,188.5L276.79734375,188.5L278.254171875,188.5L279.711,188.5L281.167828125,188.5L282.62465625,188.5L284.081484375,188.5L285.5383125,188.5L286.99514062500003,188.5L288.45196875,188.5L289.908796875,188.5L291.365625,188.5L292.82245312500004,188.5L294.27928125,188.5L295.736109375,188.5L297.19293749999997,188.5L298.649765625,188.5L300.10659375,188.5L301.56342187499996,188.5L303.02025,188.5L304.477078125,188.5L305.93390625,188.5L307.39073437499997,188.5L308.8475625,188.5L310.304390625,188.5L311.76121875,188.5L313.21804687499997,188.5L314.674875,188.5L316.131703125,188.5L317.58853125,188.5L319.045359375,188.5L320.5021875,188.5L321.959015625,188.5L323.41584375,188.5L324.872671875,188.5L326.3295,188.5L327.786328125,188.5L329.24315625,188.5L330.699984375,188.5L332.1568125,188.5L333.613640625,188.5L335.07046875000003,188.5L336.527296875,188.5L337.984125,188.5L339.440953125,188.5L340.89778125000004,188.5L342.354609375,188.5L343.81143749999995,188.5L345.26826562499997,188.5L346.72509375,188.5L348.181921875,188.5L349.63874999999996,188.5L351.095578125,188.5L352.55240625,188.5L354.009234375,188.5L355.46606249999996,188.5L356.922890625,188.5L358.37971875,188.5L359.836546875,188.5L361.29337499999997,188.5L362.750203125,188.5L364.20703125,188.5L365.663859375,188.5L367.12068750000003,188.5L368.577515625,188.5L370.03434375,188.5L371.491171875,188.5L372.94800000000004,188.5L374.404828125,188.5L375.86165625,188.5L377.318484375,188.5L378.77531250000004,188.5L380.232140625,188.5L381.68896875,188.5L383.14579687500003,188.5L384.60262500000005,188.5L386.059453125,188.5L387.51628125,188.5L388.97310937500004,188.5L390.42993750000005,188.5L391.886765625,188.5L393.34359375,188.5L394.80042187500004,188.5L396.25725000000006,188.5L397.714078125,188.5L399.17090625000003,188.5L400.62773437500005,188.5L402.08456250000006,188.5L403.541390625,188.5L404.99821875000004,188.5L406.45504687500005,188.5L407.91187500000007,188.5L409.368703125,188.5L410.82553125,188.5L412.28235937499994,188.5L413.73918749999996,188.5L415.196015625,188.5L416.65284375,188.5L418.10967187499995,188.5L419.56649999999996,188.5L421.023328125,188.5L422.48015625,188.5L423.93698437499995,188.5L425.39381249999997,188.5L426.850640625,188.5L428.30746875,188.5L429.76429687499996,188.5L431.221125,188.5L432.677953125,188.5L434.13478125,188.5L435.59160937499996,188.5L437.0484375,188.5L438.505265625,188.5L439.96209375,188.5L441.41892187499997,188.5L442.87575,188.5L444.332578125,188.5L445.78940625,188.5L447.246234375,188.5L448.7030625,188.5L450.159890625,188.5L451.61671875,188.5L453.073546875,188.5L454.530375,188.5L455.987203125,188.5L457.44403125,188.5L458.900859375,188.5L460.3576875,188.5L461.814515625,188.5L463.27134375,188.5L464.728171875,188.5L466.185,188.5L467.641828125,188.5L469.09865625000003,188.5L470.555484375,188.5L472.0123125,188.5L473.469140625,188.5L474.92596875000004,188.5L476.382796875,188.5L477.839625,188.5L479.296453125,188.5L480.75328125000004,188.5L482.210109375,188.5L483.6669375,188.5L485.12376562500003,188.5L486.58059375000005,188.5L488.037421875,188.5L489.49425,188.5L490.95107812500004,188.5L492.40790625000005,188.5L493.864734375,188.5L495.3215625,188.5L496.77839062500004,188.5L498.23521875000006,188.5L499.692046875,188.5L501.148875,188.5L502.60570312499993,188.5L504.06253124999995,188.5L505.51935937499996,188.5L506.9761875,188.5L508.43301562499994,188.5L509.88984374999995,188.5L511.34667187499997,188.5L512.8035,188.5L514.260328125,188.5L515.71715625,188.5L517.1739843749999,188.5L518.6308124999999,188.5L520.087640625,188.5L521.54446875,188.5L523.001296875,188.5L524.458125,188.5L525.914953125,188.5L527.37178125,188.5L528.8286093749999,188.5L530.2854375,188.5L531.742265625,188.5L533.19909375,188.5L534.655921875,188.5L536.11275,188.5L537.569578125,188.5L539.02640625,188.5L540.4832343749999,188.5L541.9400625,188.5L543.396890625,188.5L544.85371875,188.5L546.310546875,188.5L547.767375,188.5L549.224203125,188.5L550.68103125,188.5L552.1378593750001,188.5L553.5946875,188.5L555.051515625,188.5L556.50834375,188.5L557.965171875,188.5L559.422,188.5L560.878828125,188.5L562.33565625,188.5L563.7924843750001,188.5L565.2493125,188.5L566.706140625,188.5L568.16296875,188.5L569.619796875,188.5L571.076625,188.5L572.533453125,188.5L573.9902812500001,188.5L575.4471093750001,188.5L576.9039375,188.5L578.360765625,188.5L579.81759375,188.5L581.274421875,188.5L582.73125,188.5L584.1880781250001,188.5L585.6449062500001,188.5L587.1017343750001,188.5L588.5585625,188.5L590.015390625,188.5L591.47221875,188.5L592.9290468749999,188.5L594.3858749999999,188.5L595.842703125,188.5L597.29953125,188.5L598.756359375,188.5L600.2131875,188.5L601.670015625,188.5L603.1268437499999,188.5L604.5836718749999,188.5L606.0405,188.5L607.497328125,188.5L608.95415625,188.5L610.410984375,188.5L611.8678125,188.5L613.324640625,188.5L614.7814687499999,188.5L616.238296875,188.5L617.695125,188.5L619.151953125,188.5L620.60878125,188.5L622.065609375,188.5L623.5224375,188.5L624.979265625,188.5L626.4360937499999,188.5L627.892921875,188.5L629.34975,188.5L630.806578125,188.5L632.26340625,188.5L633.720234375,188.5L635.1770625,188.5L636.633890625,188.5L638.09071875,188.5L639.547546875,188.5L641.004375,188.5L642.461203125,188.5L643.91803125,188.5L645.374859375,188.5L646.8316875,188.5L648.2885156250001,188.5L649.74534375,188.5L651.202171875,188.5L652.659,188.5L654.115828125,188.5L655.57265625,188.5L657.029484375,188.5L658.4863125,188.5L659.9431406250001,188.5L661.39996875,188.5L662.856796875,188.5L664.313625,188.5L665.770453125,188.5L667.22728125,188.5L668.684109375,188.5L670.1409375000001,188.5L671.5977656250001,188.5L673.05459375,188.5L674.511421875,188.5L675.96825,188.5L677.425078125,188.5L678.88190625,188.5L680.3387343750001,188.5L681.7955625000001,188.5L683.252390625,188.5L684.70921875,188.5L686.166046875,188.5L687.6228749999999,188.5L689.0797031249999,188.5L690.5365312499999,188.5L691.993359375,188.5L693.4501875,188.5L694.907015625,188.5L696.36384375,188.5L697.820671875,188.5L699.2774999999999,188.5L700.7343281249999,188.5L702.19115625,188.5L703.647984375,188.5L705.1048125,188.5L706.561640625,188.5L708.01846875,188.5L709.475296875,188.5L710.9321249999999,188.5L712.388953125,188.5L713.84578125,188.5L715.302609375,188.5L716.7594375,188.5L718.216265625,188.5L719.67309375,188.5L721.129921875,188.5L722.5867499999999,188.5L724.043578125,188.5L725.50040625,188.5L726.957234375,188.5L728.4140625,188.5L729.870890625,188.5L731.32771875,188.5L732.784546875,188.5L734.2413750000001,188.5L735.698203125,188.5L737.15503125,188.5L738.611859375,188.5L740.0686875,188.5L741.525515625,188.5L742.98234375,188.5L744.439171875,188.5L745.8960000000001,188.5L747.352828125,188.5L748.80965625,188.5L750.266484375,188.5L751.7233125,188.5L753.180140625,188.5L754.63696875,188.5L756.0937968750001,188.5L757.5506250000001,188.5L759.007453125,188.5L760.46428125,188.5L761.921109375,188.5L763.3779375,188.5L764.834765625,188.5L766.2915937500001,188.5L767.7484218750001,188.5L769.2052500000001,188.5L770.662078125,188.5L772.11890625,188.5L773.575734375,188.5L775.0325625,188.5L776.489390625,188.5L777.9462187500001,188.5L779.4030468750001,188.5L780.8598750000001,188.5L782.316703125,188.5L783.77353125,188.5L785.230359375,188.5L786.6871875,188.5L788.1440156250001,188.5L789.6008437500001,188.5L791.0576718750001,188.5L792.5145000000001,188.5L793.971328125,188.5L795.42815625,188.5L796.884984375,188.5L798.3418125000001,188.5L799.7986406250001,188.5L801.2554687500001,188.5L802.7122968750001,188.5L804.1691250000001,188.5L805.625953125,188.5L807.08278125,188.5L808.539609375,188.5L809.9964375000001,188.5L811.4532656250001,188.5L812.9100937500001,188.5L814.3669218750001,188.5L815.8237500000001,188.5L817.280578125,188.5L818.73740625,188.5L820.194234375,188.5L821.6510625,188.5L823.1078906249999,188.5L824.5647187499999,188.5L826.0215468749999,188.5L827.4783749999999,188.5L828.9352031249999,188.5L830.39203125,188.5L831.848859375,188.5L833.3056875,188.5L834.7625156249999,188.5L836.2193437499999,188.5L837.6761718749999,188.5L839.1329999999999,188.5L840.5898281249999,188.5L842.04665625,188.5L843.503484375,188.5L844.9603125,188.5L846.4171406249999,188.5L847.8739687499999,188.5L849.3307968749999,188.5L850.7876249999999,188.5L852.244453125,188.5L853.70128125,188.5L855.158109375,188.5L856.6149375,188.5L858.0717656249999,188.5L859.5285937499999,188.5L860.9854218749999,188.5L862.44225,188.5L863.899078125,188.5L865.35590625,188.5L866.812734375,188.5L868.2695625,188.5L869.7263906249999,188.5L871.1832187499999,188.5L872.6400468749999,188.5L874.096875,188.5L875.553703125,188.5L877.01053125,188.5L878.467359375,188.5L879.9241875,188.5L881.3810156249999,188.5L882.8378437499999,188.5L884.294671875,188.5L885.7515,188.5L887.208328125,188.5L888.66515625,188.5L890.121984375,188.5L891.5788125,188.5L893.0356406249999,188.5L894.49246875,188.5L895.949296875,188.5L897.406125,188.5L898.862953125,188.5L900.31978125,188.5L901.776609375,188.5L903.2334375,188.5L904.6902656249999,188.5L906.14709375,188.5L907.603921875,188.5L909.06075,188.5L910.517578125,188.5L911.97440625,188.5L913.431234375,188.5L914.8880625,188.5L916.3448906250001,188.5L917.80171875,188.5L919.258546875,188.5L920.715375,188.5L922.172203125,188.5L923.62903125,188.5L925.085859375,188.5L926.5426875,188.5L927.9995156250001,188.5L929.45634375,188.5L930.913171875,188.5L932.37,188.5L933.826828125,188.5L935.28365625,188.5L936.740484375,188.5L938.1973125000001,188.5L939.6541406250001,188.5L941.11096875,188.5L942.567796875,188.5L944.024625,188.5L945.481453125,188.5L946.93828125,188.5L948.3951093750001,188.5L949.8519375000001,188.5L951.3087656250001,188.5L952.76559375,188.5L954.222421875,188.5L955.67925,188.5L957.136078125,188.5L958.59290625,188.5L960.0497343750001,188.5L961.5065625000001,188.5L962.9633906250001,188.5L964.42021875,188.5L965.877046875,188.5L967.333875,188.5L968.790703125,188.5L970.2475312500001,188.5L971.7043593750001,188.5L973.1611875000001,188.5L974.6180156250001,188.5L976.07484375,188.5L977.531671875,188.5L978.9885,188.5L980.4453281250001,188.5L981.9021562500001,188.5L983.3589843750001,188.5L984.8158125000001,188.5L986.2726406250001,188.5L987.72946875,188.5L989.186296875,188.5L990.643125,188.5L992.0999531250001,188.5L993.5567812500001,188.5L995.0136093750001,188.5L996.4704375000001,188.5L997.9272656250001,188.5L999.38409375,188.5L1000.840921875,188.5L1002.29775,188.5L1003.754578125,188.5L1005.2114062499999,188.5L1006.6682343749999,188.5L1008.1250624999999,188.5L1009.5818906249999,188.5L1011.0387187499999,188.5L1012.495546875,188.5L1013.952375,188.5L1015.409203125,188.5L1016.8660312499999,188.5L1018.3228593749999,188.5L1019.7796874999999,188.5L1021.2365156249999,188.5L1022.6933437499999,188.5L1024.1501718749998,188.5L1025.607,188.5L1027.0638281249999,188.5L1028.52065625,188.5L1029.977484375,188.5L1031.4343125,188.5L1032.891140625,188.5L1034.3479687499998,188.5L1035.804796875,188.5L1037.2616249999999,188.5L1038.718453125,188.5L1040.17528125,188.5L1041.632109375,188.5L1043.0889375,188.5L1044.545765625,188.5L1046.00259375,188.5L1047.4594218749999,188.5L1048.91625,188.5L1050.373078125,188.5L1051.82990625,188.5L1053.286734375,188.5L1054.7435625,188.5L1056.200390625,188.5L1057.6572187499999,188.5L1059.114046875,188.5L1060.570875,188.5L1062.027703125,188.5L1063.48453125,188.5L1064.941359375,188.5L1066.3981875,188.5L1067.855015625,188.5L1069.31184375,188.5L1070.7686718749999,188.5L1072.2255,188.5L1073.682328125,188.5L1075.13915625,188.5L1076.595984375,188.5L1078.0528125,188.5L1079.509640625,188.5L1080.9664687499999,188.5L1082.423296875,188.5L1083.880125,188.5L1085.336953125,188.5L1086.79378125,188.5L1088.250609375,188.5L1089.7074375,188.5L1091.164265625,188.5L1092.62109375,188.5L1094.077921875,188.5L1095.53475,188.5L1096.991578125,188.5L1098.44840625,188.5L1099.905234375,188.5L1101.3620625,188.5L1102.818890625,188.5L1104.2757187500001,188.5L1105.732546875,188.5L1107.189375,188.5L1108.646203125,188.5L1110.10303125,188.5L1111.559859375,188.5L1113.0166875,188.5L1114.4735156250001,188.5L1115.93034375,188.5L1117.387171875,188.5L1118.844,188.5L1120.300828125,188.5L1121.75765625,188.5L1123.214484375,188.5L1124.6713125,188.5L1126.128140625,188.5L1127.5849687500001,188.5L1129.041796875,188.5L1130.498625,188.5L1131.955453125,188.5L1133.41228125,188.5L1134.869109375,188.5L1136.3259375,188.5L1137.7827656250001,188.5L1139.23959375,188.5L1140.696421875,188.5L1142.15325,188.5L1143.610078125,188.5L1145.06690625,188.5L1146.523734375,188.5L1147.9805625000001,188.5L1149.437390625,188.5L1150.8942187500002,188.5L1152.351046875,188.5L1153.807875,188.5L1155.264703125,188.5L1156.72153125,188.5L1158.1783593750001,188.5L1159.6351875,188.5L1161.0920156250002,188.5L1162.54884375,188.5L1164.005671875,188.5L1165.4625,188.5L1166.919328125,188.5L1168.3761562500001,188.5L1169.832984375,188.5L1171.2898125000002,188.5L1172.746640625,188.5L1174.2034687500002,188.5L1175.660296875,188.5L1177.117125,188.5L1178.5739531250001,188.5L1180.03078125,188.5L1181.4876093750001,188.5L1182.9444375,188.5L1184.401265625,188.5L1185.8580937499999,188.5L1187.314921875,188.5L1188.7717499999999,188.5L1190.228578125,188.5L1191.68540625,188.5L1193.1422343749998,188.5L1194.5990625,188.5L1196.0558906249998,188.5L1197.51271875,188.5L1198.9695468749999,188.5L1200.426375,188.5L1201.883203125,188.5L1203.34003125,188.5L1204.796859375,188.5L1206.2536874999998,188.5L1207.710515625,188.5L1209.1673437499999,188.5L1210.624171875,188.5L1212.081,188.5L1213.537828125,188.5L1214.99465625,188.5L1216.4514843749998,188.5L1217.9083125,188.5L1219.3651406249999,188.5L1220.82196875,188.5L1222.278796875,188.5L1223.735625,188.5L1225.192453125,188.5L1226.64928125,188.5L1228.106109375,188.5L1229.5629374999999,188.5L1231.019765625,188.5L1232.47659375,188.5L1233.933421875,188.5L1235.39025,188.5L1236.847078125,188.5L1238.30390625,188.5L1239.7607343749999,188.5L1241.2175625,188.5L1242.674390625,188.5L1244.13121875,188.5L1245.588046875,188.5L1247.044875,188.5L1248.501703125,188.5L1249.95853125,188.5L1251.415359375,188.5L1252.8721874999999,188.5L1254.329015625,188.5L1255.78584375,188.5L1257.242671875,188.5L1258.6995,188.5L1260.156328125,188.5L1261.61315625,188.5L1263.0699843749999,188.5L1264.5268125,188.5L1265.983640625,188.5L1267.44046875,188.5L1268.897296875,188.5L1270.354125,188.5L1271.810953125,188.5L1273.26778125,188.5L1274.724609375,188.5L1276.1814375,188.5L1277.638265625,188.5L1279.09509375,188.5L1280.551921875,188.5L1282.00875,188.5L1283.465578125,188.5L1284.92240625,188.5L1286.3792343750001,188.5L1287.8360625,188.5L1289.292890625,188.5L1290.74971875,188.5L1292.206546875,188.5L1293.663375,188.5L1295.120203125,188.5L1296.5770312500001,188.5L1298.033859375,188.5L1299.4906875,188.5L1300.947515625,188.5L1302.40434375,188.5L1303.861171875,188.5L1305.318,188.5L1306.774828125,188.5L1308.23165625,188.5L1309.6884843750001,188.5L1311.1453125,188.5L1312.602140625,188.5L1314.05896875,188.5L1315.515796875,188.5L1316.972625,188.5L1318.429453125,188.5L1319.8862812500001,188.5L1321.343109375,188.5L1322.7999375,188.5L1324.256765625,188.5L1325.71359375,188.5L1327.170421875,188.5L1328.62725,188.5L1330.0840781250001,188.5L1331.54090625,188.5L1332.9977343750002,188.5L1334.4545625,188.5L1335.911390625,188.5L1337.36821875,188.5L1338.825046875,188.5L1340.2818750000001,188.5L1341.738703125,188.5L1343.1955312500002,188.5L1344.652359375,188.5L1346.1091875,188.5L1347.566015625,188.5L1349.02284375,188.5L1350.4796718750001,188.5L1351.9365,188.5L1353.3933281250002,188.5L1354.85015625,188.5L1356.3069843750002,188.5L1357.7638125,188.5L1359.220640625,188.5L1360.6774687500001,188.5L1362.134296875,188.5L1363.5911250000001,188.5L1365.047953125,188.5L1366.50478125,188.5L1367.9616093749999,188.5L1369.4184375,188.5L1370.8752656249999,188.5L1372.33209375,188.5L1373.788921875,188.5L1375.2457499999998,188.5L1376.702578125,188.5L1378.1594062499998,188.5" style="fill: none;" fill="none"></path></g></g></g></g></g></g><g transform="translate(41, 377)" clip-path="url(#clip_1)"><clipPath id="clip_1"><rect width="1456" height="23"></rect></clipPath><g><g><line x1="0" y1="0" x2="0" y2="5" style="visibility: inherit;" fill="rgb(0, 0, 0)" stroke="rgb(204, 204, 204)" stroke-width="1px"></line><line x1="145.6828125" y1="0" x2="145.6828125" y2="5" style="visibility: inherit;" fill="rgb(0, 0, 0)" stroke="rgb(204, 204, 204)" stroke-width="1px"></line><line x1="291.365625" y1="0" x2="291.365625" y2="5" style="visibility: inherit;" fill="rgb(0, 0, 0)" stroke="rgb(204, 204, 204)" stroke-width="1px"></line><line x1="437.0484375" y1="0" x2="437.0484375" y2="5" style="visibility: inherit;" fill="rgb(0, 0, 0)" stroke="rgb(204, 204, 204)" stroke-width="1px"></line><line x1="582.73125" y1="0" x2="582.73125" y2="5" style="visibility: inherit;" fill="rgb(0, 0, 0)" stroke="rgb(204, 204, 204)" stroke-width="1px"></line><line x1="728.4140625" y1="0" x2="728.4140625" y2="5" style="visibility: inherit;" fill="rgb(0, 0, 0)" stroke="rgb(204, 204, 204)" stroke-width="1px"></line><line x1="874.096875" y1="0" x2="874.096875" y2="5" style="visibility: inherit;" fill="rgb(0, 0, 0)" stroke="rgb(204, 204, 204)" stroke-width="1px"></line><line x1="1019.7796874999999" y1="0" x2="1019.7796874999999" y2="5" style="visibility: inherit;" fill="rgb(0, 0, 0)" stroke="rgb(204, 204, 204)" stroke-width="1px"></line><line x1="1165.4625" y1="0" x2="1165.4625" y2="5" style="visibility: inherit;" fill="rgb(0, 0, 0)" stroke="rgb(204, 204, 204)" stroke-width="1px"></line><line x1="1311.1453125" y1="0" x2="1311.1453125" y2="5" style="visibility: inherit;" fill="rgb(0, 0, 0)" stroke="rgb(204, 204, 204)" stroke-width="1px"></line><line x1="1456.828125" y1="0" x2="1456.828125" y2="5" style="visibility: inherit;" fill="rgb(0, 0, 0)" stroke="rgb(204, 204, 204)" stroke-width="1px"></line></g><g transform="translate(0, 8)"><text x="0" y="0" dx="0em" dy="0.95em" style="text-anchor: middle; visibility: hidden; font-family: Roboto, sans-serif; font-size: 12px; font-weight: 200;" fill="rgb(33, 33, 33)" stroke="none" stroke-width="1px">-100</text><text x="145.6828125" y="0" dx="0em" dy="0.95em" style="text-anchor: middle; visibility: inherit; font-family: Roboto, sans-serif; font-size: 12px; font-weight: 200;" fill="rgb(33, 33, 33)" stroke="none" stroke-width="1px">0</text><text x="291.365625" y="0" dx="0em" dy="0.95em" style="text-anchor: middle; visibility: inherit; font-family: Roboto, sans-serif; font-size: 12px; font-weight: 200;" fill="rgb(33, 33, 33)" stroke="none" stroke-width="1px">100</text><text x="437.0484375" y="0" dx="0em" dy="0.95em" style="text-anchor: middle; visibility: inherit; font-family: Roboto, sans-serif; font-size: 12px; font-weight: 200;" fill="rgb(33, 33, 33)" stroke="none" stroke-width="1px">200</text><text x="582.73125" y="0" dx="0em" dy="0.95em" style="text-anchor: middle; visibility: inherit; font-family: Roboto, sans-serif; font-size: 12px; font-weight: 200;" fill="rgb(33, 33, 33)" stroke="none" stroke-width="1px">300</text><text x="728.4140625" y="0" dx="0em" dy="0.95em" style="text-anchor: middle; visibility: inherit; font-family: Roboto, sans-serif; font-size: 12px; font-weight: 200;" fill="rgb(33, 33, 33)" stroke="none" stroke-width="1px">400</text><text x="874.096875" y="0" dx="0em" dy="0.95em" style="text-anchor: middle; visibility: inherit; font-family: Roboto, sans-serif; font-size: 12px; font-weight: 200;" fill="rgb(33, 33, 33)" stroke="none" stroke-width="1px">500</text><text x="1019.7796874999999" y="0" dx="0em" dy="0.95em" style="text-anchor: middle; visibility: inherit; font-family: Roboto, sans-serif; font-size: 12px; font-weight: 200;" fill="rgb(33, 33, 33)" stroke="none" stroke-width="1px">600</text><text x="1165.4625" y="0" dx="0em" dy="0.95em" style="text-anchor: middle; visibility: inherit; font-family: Roboto, sans-serif; font-size: 12px; font-weight: 200;" fill="rgb(33, 33, 33)" stroke="none" stroke-width="1px">700</text><text x="1311.1453125" y="0" dx="0em" dy="0.95em" style="text-anchor: middle; visibility: inherit; font-family: Roboto, sans-serif; font-size: 12px; font-weight: 200;" fill="rgb(33, 33, 33)" stroke="none" stroke-width="1px">800</text><text x="1456.828125" y="0" dx="0em" dy="0.95em" style="text-anchor: middle; visibility: hidden; font-family: Roboto, sans-serif; font-size: 12px; font-weight: 200;" fill="rgb(33, 33, 33)" stroke="none" stroke-width="1px">900</text></g><line x1="0" y1="0" x2="1456.828125" y2="0" fill="rgb(0, 0, 0)" stroke="rgb(204, 204, 204)" stroke-width="1px"></line></g></g></g></g></svg>